<?xml version="1.0" encoding="UTF-8"?>
<svg xmlns="http://www.w3.org/2000/svg" width="300px" height="68px" viewBox="0 0 278 63" fill="none">
  <path d="M83.8379 11.4076V28.9545H80.4526V21.7608H73.2378V28.9545H69.8525V11.4076H73.2378V18.6506H80.4526V11.4076H83.8379Z" fill="#184377"></path>
  <path d="M88.8277 21.3905H95.5488C95.3513 19.5639 93.8209 18.6471 92.2623 18.6471C91.4577 18.6237 90.6708 18.8866 90.0419 19.3889C89.4129 19.8913 88.9826 20.6006 88.8277 21.3905V21.3905ZM98.4898 23.8131H88.877C89.346 25.5763 90.88 26.479 92.8054 26.479C94.0155 26.5209 95.1972 26.1069 96.1166 25.3189L97.6258 26.9269C96.5679 28.2598 94.7096 29.2013 92.4351 29.2013C88.9088 29.2013 85.7351 26.8034 85.7351 22.526C85.7351 18.2486 88.9476 15.8542 92.2341 15.8542C95.5206 15.8542 99.2021 18.1534 98.4862 23.8131" fill="#184377"></path>
  <path d="M110.275 22.526C110.275 20.107 108.543 18.8199 106.692 18.8199C104.841 18.8199 103.095 20.1317 103.095 22.526C103.095 24.9204 104.827 26.2357 106.682 26.2357C108.536 26.2357 110.264 24.9486 110.264 22.526H110.275ZM99.8335 22.526C99.8335 18.0793 103.007 15.8542 106.012 15.8542C108.311 15.8542 109.795 17.1167 110.116 17.8325H110.187V16.1011H113.501V28.9509H110.187V27.2231H110.116C109.795 27.9283 108.311 29.1978 106.012 29.1978C103.021 29.1978 99.8335 26.9762 99.8335 22.526Z" fill="#184377"></path>
  <path d="M119.341 11.4076H116.029V28.951H119.341V11.4076Z" fill="#184377"></path>
  <path d="M129.073 25.9606V28.5066C128.579 28.9509 127.641 29.0991 126.823 29.0991C124.651 29.0991 123.068 28.0412 123.068 25.3929V18.7458H121.241V16.1046H123.068V12.811H126.404V16.0976H129.048V18.7388H126.404V24.8428C126.404 25.5093 126.756 26.1511 127.864 26.1511C128.274 26.1448 128.682 26.0783 129.073 25.9536" fill="#184377"></path>
  <path d="M143.182 21.3905V28.9509H139.871V21.9336C139.871 20.0576 138.859 18.8199 137.127 18.8199C135.396 18.8199 134.384 20.0576 134.384 21.9336V28.9509H131.073V11.4005H134.384V17.8501C135.089 16.7147 136.387 15.8507 138.312 15.8507C140.957 15.8507 143.182 17.4799 143.182 21.3835" fill="#184377"></path>
  <path d="M162.009 14.5213H157.781V28.951H154.396V14.5213H150.171V11.4076H162.009V14.5213Z" fill="#184377"></path>
  <path d="M172.087 15.953V19.1267C171.81 19.0776 171.529 19.0528 171.248 19.0527C168.751 19.0527 167.193 20.7841 167.193 23.3548V28.9616H163.882V16.1047H167.193V19.4406C167.637 17.4623 168.9 15.8578 171.22 15.8578C171.512 15.8527 171.803 15.8847 172.087 15.953" fill="#184377"></path>
  <path d="M183.403 22.526C183.403 20.107 181.672 18.8199 179.82 18.8199C177.969 18.8199 176.234 20.1317 176.234 22.526C176.234 24.9204 177.966 26.2357 179.82 26.2357C181.675 26.2357 183.403 24.9486 183.403 22.526ZM172.976 22.526C172.976 18.0793 176.15 15.8542 179.15 15.8542C181.45 15.8542 182.934 17.1167 183.255 17.8325H183.329V16.1011H186.64V28.9509H183.329V27.2231H183.255C182.934 27.9283 181.45 29.1978 179.15 29.1978C176.16 29.1978 172.976 26.9762 172.976 22.526Z" fill="#184377"></path>
  <path d="M201.264 21.3906V28.951H197.953V21.9337C197.953 20.0577 196.941 18.8199 195.209 18.8199C193.478 18.8199 192.469 20.0577 192.469 21.9337V28.951H189.155V16.1047H192.469V17.8678C193.174 16.7323 194.469 15.8684 196.398 15.8684C199.042 15.8684 201.264 17.4976 201.264 21.4012" fill="#184377"></path>
  <path d="M203.041 25.5904L205.686 24.8852C205.933 25.7244 206.55 26.5919 207.802 26.5919C208.644 26.5919 209.459 26.1723 209.459 25.2554C209.459 24.6383 209.064 24.1975 208.048 23.8237L206.465 23.2313C204.349 22.4626 203.45 21.1155 203.45 19.5499C203.45 17.2507 205.474 15.8649 207.897 15.8649C210.221 15.8649 211.927 17.1767 212.347 19.1514L209.752 19.8214C209.399 18.7635 208.74 18.4602 208.048 18.4602C207.181 18.4602 206.663 18.9539 206.663 19.5745C206.663 20.1176 206.983 20.5866 207.999 20.9322L209.431 21.4752C211.011 22.043 212.742 22.981 212.742 25.2554C212.742 27.8261 210.542 29.2119 207.847 29.2119C205.305 29.2119 203.425 27.9742 203.031 25.601" fill="#184377"></path>
  <path d="M217.94 11.4076H214.629V28.951H217.94V11.4076Z" fill="#184377"></path>
  <path d="M230.268 22.526C230.268 20.107 228.54 18.8199 226.685 18.8199C224.83 18.8199 223.102 20.1317 223.102 22.526C223.102 24.9204 224.83 26.2357 226.685 26.2357C228.54 26.2357 230.268 24.9486 230.268 22.526ZM219.84 22.526C219.84 18.0793 223.014 15.8542 226.018 15.8542C228.318 15.8542 229.799 17.1167 230.12 17.8325H230.194V16.1011H233.505V28.9509H230.194V27.2231H230.12C229.799 27.9283 228.318 29.1978 226.018 29.1978C223.028 29.1978 219.84 26.9762 219.84 22.526Z" fill="#184377"></path>
  <path d="M243.237 25.9606V28.5066C242.744 28.9509 241.806 29.0991 240.988 29.0991C238.815 29.0991 237.232 28.0412 237.232 25.3929V18.7458H235.406V16.1046H237.232V12.811H240.568V16.0976H243.213V18.7388H240.568V24.8428C240.568 25.5093 240.942 26.1511 242.028 26.1511C242.439 26.1448 242.846 26.0783 243.237 25.9536" fill="#184377"></path>
  <path d="M245.237 16.1011H248.552V28.951H245.237V16.1011ZM245.237 11.4076H248.552V14.3239H245.237V11.4076Z" fill="#184377"></path>
  <path d="M260.721 22.526C260.721 20.2304 259.088 18.8446 257.237 18.8446C255.386 18.8446 253.711 20.2304 253.711 22.526C253.711 24.8216 255.368 26.211 257.237 26.211C259.106 26.211 260.721 24.8252 260.721 22.526ZM250.463 22.526C250.463 18.1781 253.876 15.8542 257.237 15.8542C260.597 15.8542 264.004 18.1781 264.004 22.526C264.004 26.874 260.569 29.1978 257.237 29.1978C253.905 29.1978 250.463 26.8775 250.463 22.526Z" fill="#184377"></path>
  <path d="M278 21.3906V28.951H274.689V21.9337C274.689 20.0577 273.677 18.8199 271.946 18.8199C270.214 18.8199 269.206 20.0577 269.206 21.9337V28.951H265.891V16.1047H269.206V17.8678C269.911 16.7323 271.205 15.8684 273.134 15.8684C275.775 15.8684 278 17.4976 278 21.4012" fill="#184377"></path>
  <path d="M82.1347 46.8857L78.4109 42.2909H80.8793L83.6228 45.6762C84.8485 44.3653 85.5096 42.6251 85.4635 40.831C85.4635 36.5995 82.2899 33.8631 78.7424 33.8631C75.1949 33.8631 71.9966 36.5818 71.9966 40.831C71.9966 45.0802 75.1703 47.8026 78.7424 47.8026C79.94 47.8029 81.1164 47.4866 82.1523 46.8857H82.1347ZM84.9945 47.3336L86.8212 49.6045H84.3774L83.4853 48.5184C82.053 49.3945 80.4037 49.8514 78.7248 49.8372C73.9537 49.8372 69.8032 46.2051 69.8032 40.8169C69.8032 35.4287 73.9537 31.8002 78.7248 31.8002C83.4959 31.8002 87.6181 35.4323 87.6181 40.8169C87.6404 42.0231 87.4178 43.2212 86.9638 44.3388C86.5098 45.4565 85.8339 46.4704 84.9769 47.3194" fill="#184377"></path>
  <path d="M101.43 36.7546V49.6045H99.3534V47.5064C98.6834 48.7406 97.2764 49.8514 95.0548 49.8514C92.3607 49.8514 90.0369 48.1728 90.0369 44.315V36.7546H92.1139V44.0188C92.1139 46.6142 93.6443 47.9507 95.6966 47.9507C97.7489 47.9507 99.3534 46.6142 99.3534 44.0188V36.7546H101.43Z" fill="#184377"></path>
  <path d="M105.701 42.3651H114.45C114.302 39.7203 112.299 38.3134 110.148 38.3134C107.997 38.3134 106.022 39.671 105.701 42.3651ZM116.28 43.9449H105.701C106.022 46.639 108.074 48.0742 110.546 48.0742C111.258 48.0941 111.967 47.9658 112.627 47.6975C113.286 47.4292 113.883 47.0267 114.379 46.5155L115.42 47.5734C114.792 48.307 114.009 48.8911 113.127 49.2828C112.244 49.6745 111.286 49.864 110.321 49.8373C106.861 49.8373 103.723 47.4394 103.723 43.1655C103.723 38.8917 106.897 36.4938 110.127 36.4938C113.357 36.4938 116.795 38.8423 116.277 43.9308" fill="#184377"></path>
  <path d="M120.021 42.3651H128.77C128.622 39.7203 126.619 38.3134 124.471 38.3134C122.324 38.3134 120.346 39.671 120.021 42.3651V42.3651ZM130.6 43.9449H120.021C120.346 46.639 122.398 48.0742 124.866 48.0742C125.578 48.0931 126.285 47.9644 126.944 47.6962C127.604 47.4279 128.2 47.0259 128.696 46.5155L129.733 47.5734C129.105 48.3084 128.32 48.8933 127.437 49.285C126.553 49.6768 125.593 49.8655 124.627 49.8373C121.167 49.8373 118.029 47.4394 118.029 43.1655C118.029 38.8917 121.202 36.4938 124.429 36.4938C127.656 36.4938 131.101 38.8423 130.582 43.9308" fill="#184377"></path>
  <path d="M144.353 42.0442V49.6046H142.279V42.3404C142.279 39.745 140.745 38.4121 138.696 38.4121C136.648 38.4121 135.036 39.745 135.036 42.3404V49.6046H132.963V36.7547H135.036V38.8705C135.706 37.6328 137.113 36.522 139.338 36.522C142.032 36.522 144.353 38.204 144.353 42.0583" fill="#184377"></path>
  <path d="M146.515 46.3674L148.243 45.8984C148.371 46.5389 148.722 47.1135 149.233 47.5206C149.744 47.9277 150.382 48.1412 151.035 48.1235C152.248 48.1235 153.458 47.5275 153.458 46.1205C153.458 45.0626 152.717 44.5161 151.236 43.899L150.073 43.4511C147.957 42.5872 147.058 41.3353 147.058 39.8684C147.058 37.8408 148.821 36.5078 151.035 36.5078C153.088 36.5078 154.622 37.6433 155.062 39.3747L153.409 39.8684C153.264 39.3763 152.959 38.9465 152.543 38.6469C152.126 38.3474 151.622 38.1953 151.109 38.2145C149.999 38.2145 149.11 38.807 149.11 39.8931C149.11 40.7076 149.628 41.353 150.961 41.896L151.998 42.3156C154.026 43.1055 155.524 43.9942 155.524 46.1205C155.524 48.6665 153.373 49.8514 151.049 49.8514C148.652 49.8514 146.924 48.5678 146.529 46.3674" fill="#184377"></path>
  <path d="M159.883 32.0612H157.806V49.6045H159.883V32.0612Z" fill="#184377"></path>
  <path d="M173.445 43.1796C173.445 40.0059 171.149 38.412 168.826 38.412C166.502 38.412 164.241 39.9918 164.241 43.1796C164.241 46.3674 166.537 47.9507 168.826 47.9507C171.114 47.9507 173.445 46.3427 173.445 43.1796ZM162.161 43.1796C162.161 38.7823 165.335 36.5078 168.462 36.5078C170.857 36.5078 172.662 37.8196 173.279 39.1772H173.353V36.7546H175.43V49.6045H173.353V47.1819H173.279C172.662 48.5431 170.857 49.8514 168.462 49.8514C165.349 49.8514 162.161 47.5804 162.161 43.1796" fill="#184377"></path>
  <path d="M189.751 42.0442V49.6046H187.677V42.3404C187.677 39.745 186.143 38.4121 184.094 38.4121C182.046 38.4121 180.434 39.745 180.434 42.3404V49.6046H178.361V36.7547H180.434V38.8705C181.104 37.6328 182.511 36.522 184.736 36.522C187.43 36.522 189.751 38.204 189.751 42.0583" fill="#184377"></path>
  <path d="M203.316 43.1796C203.316 40.0059 201.017 38.412 198.693 38.412C196.422 38.412 194.109 39.9918 194.109 43.1796C194.109 46.3674 196.408 47.9507 198.693 47.9507C201.017 47.9507 203.316 46.3427 203.316 43.1796ZM205.316 32.0612V49.6045H203.242V47.182H203.165C202.547 48.5431 200.746 49.8514 198.348 49.8514C195.234 49.8514 192.046 47.5804 192.046 43.1796C192.046 38.7788 195.22 36.5078 198.348 36.5078C200.746 36.5078 202.547 37.8161 203.165 39.1772H203.242V32.0612H205.316Z" fill="#184377"></path>
  <path d="M52.6691 15.946L34.551 5.487C34.4029 5.40038 34.2498 5.32267 34.0925 5.25427V5.22958C28.8031 2.17227 25.0969 5.30363 25.0969 10.0148V13.2837C25.0969 11.2172 25.7387 9.69389 26.8037 8.82642C26.9482 8.70914 27.1014 8.60303 27.2621 8.50904V8.50904L27.2938 8.49141C27.4472 8.40559 27.6063 8.33019 27.7699 8.26572H27.8157C27.9928 8.2001 28.1742 8.14708 28.3588 8.10705C29.5013 7.87431 30.8695 8.13526 32.3435 8.94631L32.4916 9.04152L40.327 13.5164L49.6788 18.9152C53.7552 21.2708 54.6509 26.0736 49.3579 29.1203L50.8672 29.9948C51.5923 30.4112 52.2843 30.8828 52.9371 31.4054C53.6275 30.8587 54.2672 30.2508 54.8484 29.5893L54.8872 29.547C55.0106 29.4024 55.134 29.2543 55.2398 29.1062C55.2613 29.0753 55.2849 29.0459 55.3103 29.018C55.4196 28.877 55.5254 28.7359 55.6312 28.5914L55.7123 28.475C55.8111 28.3375 55.9063 28.1964 55.998 28.0554L56.0861 27.9143C56.1708 27.7803 56.2554 27.6428 56.3365 27.5017L56.3717 27.4418C56.4811 27.2514 56.5833 27.0574 56.6821 26.8599C56.7209 26.7788 56.7596 26.7013 56.7949 26.6202C56.8302 26.5391 56.9218 26.3486 56.9818 26.2146C57.0417 26.0806 57.077 25.9819 57.1229 25.862C57.1687 25.7421 57.204 25.661 57.2392 25.5552C57.2745 25.4494 57.338 25.2731 57.3838 25.1285C57.4085 25.0545 57.4296 24.9804 57.4543 24.9064C57.5037 24.7371 57.5531 24.5537 57.5954 24.3951C57.5954 24.3527 57.613 24.314 57.6236 24.2716C57.6624 24.1165 57.6941 23.9578 57.7223 23.8026C57.7223 23.7744 57.7223 23.7498 57.7223 23.7251C57.7223 20.5902 55.9133 17.822 52.6303 15.9249" fill="#008566"></path>
  <path d="M17.0532 43.0879V13.2836C17.0532 8.08227 19.3136 3.79428 23.256 1.51629C23.9055 1.14288 24.5892 0.832325 25.2977 0.588867L25.2307 0.624132C22.5155 2.18981 21.0203 5.14134 21.0203 8.93564V40.7747L17.0532 43.0879Z" fill="#008566"></path>
  <path d="M3.96702 18.8058V39.7239C3.96826 39.8948 3.97884 40.0655 3.99875 40.2352H3.97759C3.97759 46.3463 8.54063 47.9931 12.6206 45.6375L15.4416 44.0048C13.6538 45.038 12.0141 45.2426 10.7305 44.7524C10.5556 44.6835 10.3859 44.6022 10.2227 44.5091V44.5091H10.1909C10.0398 44.4177 9.89493 44.3164 9.75721 44.2058C9.74617 44.1956 9.73439 44.1862 9.72196 44.1776C9.57734 44.056 9.4418 43.924 9.31642 43.7827C8.54064 42.9117 8.08221 41.5964 8.05047 39.9037C8.05047 39.8438 8.05047 39.7874 8.05047 39.7274V19.8849C8.05047 15.1773 11.7601 12.0001 17.0461 15.0574V13.3154C17.0477 12.4784 17.1113 11.6428 17.2365 10.8152C16.4182 10.4898 15.5719 10.2396 14.7081 10.0676H14.6553C14.4648 10.0289 14.2779 9.99712 14.0875 9.96891L13.9782 9.95129L13.4493 9.8878H13.3047C13.1354 9.8878 12.952 9.85959 12.8004 9.85254H12.6347C12.4725 9.85254 12.3138 9.85254 12.1516 9.85254H12.0811C11.8624 9.85254 11.6403 9.85255 11.4216 9.87371L11.1572 9.89486L10.7128 9.93718C10.5894 9.93718 10.466 9.97244 10.3602 9.99007H10.0005L9.55621 10.0818L9.33052 10.1311C9.15773 10.1734 8.9779 10.2158 8.81569 10.2651L8.69579 10.3004C8.54416 10.3462 8.38901 10.3991 8.23737 10.452L8.17037 10.4873C5.45512 12.053 3.95996 15.0045 3.95996 18.7988" fill="#007196"></path>
  <path d="M6.20276 11.4006C2.26035 13.6786 0 17.9666 0 23.1679V39.7416C0.00176784 40.5785 0.0654071 41.4142 0.190413 42.2417V42.2417C0.316946 43.1119 0.522313 43.9688 0.803987 44.8018C0.803987 44.8195 0.803987 44.8406 0.803987 44.8582C0.867461 45.0381 0.93446 45.2109 1.00146 45.3942L1.04377 45.5C1.11077 45.6658 1.18131 45.8315 1.25184 45.9902C1.27299 46.036 1.29414 46.0783 1.31178 46.1207C1.38583 46.2758 1.45636 46.4275 1.53394 46.5791L1.61153 46.7237C1.68558 46.8647 1.76314 47.0093 1.84072 47.1468C1.85488 47.166 1.86783 47.186 1.87951 47.2068C1.98882 47.3972 2.10519 47.5841 2.23214 47.7675L2.38379 47.9896C2.46842 48.1095 2.55305 48.2329 2.64473 48.3422C2.73641 48.4516 2.79635 48.5397 2.87393 48.6349L3.07846 48.8888C3.1772 49.0052 3.27592 49.118 3.37819 49.2414L3.53688 49.4107C3.65677 49.5412 3.78019 49.6646 3.91066 49.788L4.00235 49.8762C4.11872 49.9855 4.23861 50.0913 4.35498 50.1971C4.37606 50.2121 4.39849 50.225 4.42198 50.2359C4.42198 50.2359 4.42198 50.2359 4.42198 50.2359C5.94124 51.1057 7.70532 51.449 9.43991 51.2126H9.49987C9.67972 51.188 9.85249 51.1633 10.0359 51.128H10.0782C10.2651 51.0928 10.452 51.0504 10.6424 51.0046L10.7623 50.9693C10.9245 50.9235 11.0867 50.8812 11.2489 50.8283L11.457 50.7578L11.859 50.6167L12.1481 50.4968L12.4725 50.3628L12.8252 50.1936C12.9133 50.1512 13.005 50.1124 13.0932 50.0666C13.2977 49.9608 13.5022 49.848 13.7068 49.714L41.2931 33.7856L37.2166 31.4442L21.9583 40.2599L12.6101 45.6552C9.48225 47.4642 6.06525 46.9106 4.64767 43.8039C4.16986 42.4996 3.93095 41.12 3.94241 39.731V18.8059C3.94241 15.0116 5.43404 12.0601 8.14929 10.4944L8.21629 10.4591C7.50835 10.7041 6.82482 11.0146 6.17457 11.3865" fill="#0094BB"></path>
  <path d="M45.285 36.0847L19.4689 50.9834C14.9658 53.5858 10.1241 53.7692 6.17821 51.4947C5.53147 51.1188 4.92219 50.6819 4.35864 50.19L4.42211 50.2288C7.13737 51.798 10.4415 51.6181 13.728 49.721L41.3002 33.7997L45.285 36.0847Z" fill="#007196"></path>
  <path d="M30.7846 59.5346L48.8993 49.0756C49.058 48.9839 49.1955 48.8887 49.3295 48.7935H49.3507C54.6401 45.7467 53.7868 40.9651 49.7033 38.6095L46.8822 36.9768C48.6701 38.01 49.668 39.3289 49.8902 40.683C49.9195 40.8684 49.9348 41.0559 49.936 41.2436V41.2648C49.9377 41.2753 49.9377 41.286 49.936 41.2965C49.936 41.4737 49.9218 41.6506 49.8937 41.8255C49.8951 41.8407 49.8951 41.8561 49.8937 41.8713C49.8629 42.0581 49.8169 42.2421 49.7562 42.4214C49.4035 43.5252 48.4797 44.5795 47.0374 45.4505L46.8822 45.5316L39.0538 50.0524L29.6844 55.4793C25.6045 57.8349 20.9991 56.2093 21.0062 50.1017L19.4934 50.9727C18.769 51.39 18.0146 51.753 17.2366 52.0588C17.3631 52.929 17.5685 53.7859 17.8501 54.6189C17.8522 54.6377 17.8522 54.6566 17.8501 54.6753C17.9136 54.8552 17.9806 55.028 18.0511 55.2113C18.0511 55.2466 18.0794 55.2819 18.0935 55.3171C18.1605 55.4829 18.2275 55.6451 18.3015 55.8073C18.3015 55.8531 18.3403 55.8954 18.3615 55.9378C18.432 56.0929 18.5025 56.2446 18.5801 56.3962L18.6577 56.5408C18.7352 56.6818 18.8093 56.8264 18.8904 56.9639L18.9257 57.0239C19.035 57.2143 19.1549 57.4012 19.2783 57.5845L19.4335 57.8067C19.5181 57.9266 19.6027 58.05 19.6909 58.1593C19.779 58.2687 19.8425 58.3568 19.9201 58.452C19.9977 58.5472 20.0576 58.6248 20.1281 58.7059C20.1987 58.787 20.3221 58.9351 20.4243 59.0585L20.583 59.2278C20.7065 59.3548 20.8299 59.4817 20.9568 59.6051C20.9856 59.6363 21.0162 59.6657 21.0485 59.6933C21.1649 59.8026 21.2848 59.9084 21.4011 60.0142L21.4681 60.0565C24.1834 61.6222 27.484 61.4423 30.7705 59.5452" fill="#F79421"></path>
  <path d="M23.2418 61.3083C27.1877 63.5828 32.0294 63.3994 36.536 60.797L50.8845 52.5173C51.6078 52.0996 52.2985 51.6281 52.9509 51.1067V51.1067C53.6413 50.56 54.281 49.9522 54.8622 49.2907L54.901 49.2484C55.0279 49.1038 55.1478 48.9557 55.2536 48.8076L55.3242 48.7194C55.4335 48.5784 55.5428 48.4373 55.645 48.2927L55.7261 48.1764C55.8249 48.0389 55.9201 47.8978 56.0118 47.7568C56.0435 47.7109 56.0717 47.6651 56.0999 47.6157C56.1846 47.4817 56.2727 47.3442 56.3503 47.2031L56.3856 47.1432C56.4949 46.9527 56.5971 46.7588 56.6959 46.5613C56.7382 46.4837 56.7735 46.4026 56.8122 46.3215C56.8757 46.1875 56.9392 46.05 56.9956 45.916C57.052 45.782 57.0908 45.6868 57.1367 45.5634C57.1825 45.44 57.2178 45.3624 57.2566 45.2566C57.2954 45.1508 57.3553 44.9745 57.4011 44.8299C57.4223 44.7559 57.447 44.6818 57.4681 44.6078C57.521 44.4385 57.5669 44.2551 57.6092 44.0964C57.6092 44.0541 57.6304 44.0153 57.6374 43.973C57.6762 43.8179 57.7079 43.6592 57.7361 43.504C57.7361 43.4758 57.7361 43.4511 57.7361 43.4264V43.4018C57.7279 41.6517 57.1443 39.9529 56.0752 38.5672C56.0612 38.5516 56.0483 38.5351 56.0365 38.5178C55.9271 38.3768 55.8143 38.2322 55.6838 38.0947L55.6556 38.0629C55.5287 37.9183 55.4017 37.7773 55.2642 37.6398C55.2354 37.6086 55.2048 37.5792 55.1725 37.5516C55.0561 37.4317 54.9362 37.3154 54.8199 37.199C54.7635 37.1531 54.707 37.1073 54.6542 37.0579C54.5448 36.9663 54.439 36.871 54.3262 36.7794C54.2134 36.6877 54.1605 36.6524 54.0794 36.5889L53.8008 36.3738L53.4834 36.1587C53.4023 36.1023 53.3247 36.0459 53.2366 35.9895C53.0426 35.866 52.8451 35.7426 52.6406 35.6368L25.0543 19.7085V24.4126L40.3091 33.2284L49.6609 38.6271C52.7887 40.4326 54.0194 43.6662 52.0376 46.4485C51.1461 47.5096 50.0711 48.4018 48.864 49.0826L30.7846 59.5346C27.4981 61.4318 24.1974 61.6116 21.4822 60.0459L21.4187 60.0036C21.9832 60.4959 22.5937 60.9328 23.2418 61.3083" fill="#FBB261"></path>
  <path d="M25.0825 15.1173L50.9057 30.023C55.4123 32.6254 57.9935 36.723 57.9935 41.2825C57.9915 42.0316 57.9194 42.7789 57.7784 43.5147V43.4371C57.7784 40.3022 55.9694 37.534 52.6864 35.6369L25.1142 19.7191L25.0825 15.1173Z" fill="#F79421"></path>
  <path d="M32.5162 53.8362C30.7283 54.8694 29.0851 55.0739 27.8015 54.5837C27.6285 54.5146 27.4601 54.4345 27.2972 54.344V54.344L27.269 54.3263C27.1168 54.2367 26.9718 54.1353 26.8353 54.0231L26.7965 53.9949C26.6528 53.8723 26.5173 53.7404 26.391 53.5999C25.5905 52.6972 25.1215 51.3254 25.118 49.5552V47.7216L21.031 50.0807C21.031 56.1882 25.6152 57.8139 29.7092 55.4583L32.5162 53.8362Z" fill="#FBB261"></path>
  <path d="M8.03629 23.1537C8.03629 21.0873 8.68162 19.564 9.74657 18.6965C9.89075 18.5761 10.0453 18.4687 10.2085 18.3756H10.2402C10.3929 18.2884 10.5521 18.2129 10.7163 18.1499L10.7621 18.1323C10.9393 18.0678 11.1207 18.016 11.3052 17.9771C12.49 17.7338 13.9111 18.0159 15.4451 18.8975L17.0143 19.8038V15.0573C11.7248 12 8.01514 15.1737 8.01514 19.8849L8.03629 23.1537Z" fill="#0094BB"></path>
  <path d="M46.8573 17.2965C48.6451 18.3262 49.6431 19.6486 49.8617 21.0027C49.8911 21.1869 49.9064 21.3732 49.9075 21.5598V21.5774C49.9075 21.5774 49.9075 21.6021 49.9075 21.6127C49.9075 21.7899 49.8933 21.9667 49.8652 22.1417C49.8633 22.1569 49.8633 22.1723 49.8652 22.1875C49.8311 22.3736 49.7851 22.5573 49.7277 22.7376C49.3469 23.8801 48.3912 24.9733 46.8608 25.8584L45.2881 26.7646L49.3751 29.1237C54.6645 26.077 53.7724 21.2742 49.696 18.9186L46.8573 17.2965Z" fill="#1CB079"></path>
  <path d="M57.9582 21.5881C57.9582 17.0356 55.377 12.9345 50.8739 10.3321L36.5253 2.04878C35.8001 1.63081 35.0445 1.26776 34.265 0.96268C34.2671 0.957004 34.2671 0.95073 34.265 0.945053C33.4477 0.620169 32.6026 0.369951 31.7402 0.197472H31.6837C31.4968 0.158683 31.3064 0.126947 31.116 0.0987362H31.0067L30.4777 0.0352652H30.3331C30.1639 0.0352652 29.9981 0.00705262 29.8289 0H29.6631C29.5009 0 29.3423 0 29.18 0H29.1095C28.8909 0 28.6723 0.00705175 28.4536 0.021157L28.1856 0.042314C28.0375 0.042314 27.8894 0.0670018 27.7413 0.0846333L27.371 0.137526L27.0466 0.186894L26.6023 0.278581L26.3766 0.327949C26.2038 0.370265 26.024 0.412577 25.8618 0.461945L25.7419 0.497211C25.5903 0.543053 25.4351 0.595945 25.2835 0.648839L25.2165 0.684105C23.705 1.56584 22.5254 2.92015 21.8594 4.53836C21.854 4.55886 21.8469 4.57891 21.8383 4.59831C21.7677 4.76404 21.7043 4.92978 21.6408 5.10609V5.14489C21.5773 5.32473 21.5209 5.49752 21.468 5.69499C21.4554 5.73557 21.4448 5.77676 21.4363 5.81841C21.394 5.98062 21.3516 6.1393 21.3129 6.30856C21.3129 6.37909 21.2882 6.44962 21.274 6.52367C21.2458 6.6612 21.2176 6.79872 21.1965 6.9433C21.1753 7.08787 21.1683 7.15135 21.1542 7.25361C21.1401 7.35587 21.1189 7.48282 21.1083 7.60624C21.0977 7.72966 21.1083 7.86366 21.0801 7.99061C21.0519 8.11756 21.0625 8.18809 21.0554 8.28683C21.0554 8.51956 21.0554 8.7523 21.0554 8.99209V40.8452L25.1248 38.4861V10.0147C25.1248 6.40378 27.3111 3.72378 30.714 4.04468C32.083 4.28892 33.3969 4.77746 34.5929 5.48694L52.6688 15.9424C55.9518 17.8396 57.7608 20.6113 57.7608 23.7462C57.7608 23.7708 57.7608 23.7955 57.7608 23.8202C57.9039 23.0848 57.9759 22.3373 57.9759 21.5881" fill="#1CB079"></path>
</svg>
