<?xml version="1.0" standalone="no"?>
<!DOCTYPE svg PUBLIC "-//W3C//DTD SVG 20010904//EN"
 "http://www.w3.org/TR/2001/REC-SVG-20010904/DTD/svg10.dtd">
<svg version="1.0" xmlns="http://www.w3.org/2000/svg"
 width="1008.000000pt" height="1008.000000pt" viewBox="0 0 1008.000000 1008.000000"
 preserveAspectRatio="xMidYMid meet">
<metadata>
Created by potrace 1.14, written by Peter Selinger 2001-2017
</metadata>
<g transform="translate(0.000000,1008.000000) scale(0.100000,-0.100000)"
fill="#000000" stroke="none">
<path d="M4899 10075 c-2 -2 -29 -6 -59 -9 -30 -3 -68 -8 -85 -12 -16 -3 -39
-7 -50 -9 -11 -1 -20 -3 -20 -5 0 -1 -9 -3 -20 -4 -37 -5 -127 -28 -178 -47
-27 -10 -54 -16 -58 -13 -5 3 -9 1 -9 -3 0 -5 -9 -9 -21 -10 -60 -5 -372 -170
-443 -235 -11 -10 -23 -18 -27 -18 -4 0 -21 -12 -37 -27 -17 -16 -45 -39 -62
-52 -49 -38 -171 -166 -235 -246 -22 -27 -42 -52 -45 -55 -13 -13 -80 -117
-80 -125 0 -4 -6 -13 -14 -19 -18 -13 -134 -246 -165 -331 -13 -33 -27 -69
-31 -80 -9 -21 -22 -62 -26 -80 -1 -5 -9 -35 -18 -66 -9 -31 -19 -66 -21 -78
-2 -13 -6 -30 -9 -39 -6 -19 -15 -72 -22 -121 -5 -41 -9 -46 -26 -35 -7 5 -17
10 -23 11 -5 1 -37 12 -70 23 -102 36 -236 70 -325 83 -19 3 -46 8 -60 11 -77
18 -318 24 -475 11 -55 -4 -118 -9 -140 -11 -22 -1 -40 -3 -40 -4 0 -1 -13 -3
-30 -5 -16 -2 -40 -6 -52 -9 -13 -3 -33 -8 -44 -11 -113 -24 -429 -148 -429
-167 0 -4 -6 -8 -13 -8 -14 0 -198 -120 -233 -151 -11 -11 -24 -19 -28 -19
-21 0 -302 -281 -311 -311 -4 -11 -10 -19 -15 -19 -10 0 -145 -202 -168 -250
-6 -14 -16 -32 -22 -40 -55 -83 -180 -426 -196 -535 -1 -11 -3 -20 -4 -20 -2
0 -9 -32 -14 -65 -3 -14 -7 -41 -11 -60 -8 -43 -13 -83 -22 -185 -10 -102 -10
-3054 -1 -3160 4 -44 10 -89 12 -100 3 -11 8 -38 11 -60 3 -22 8 -58 11 -79 3
-22 9 -47 14 -57 5 -9 7 -18 5 -21 -4 -4 24 -109 64 -236 5 -18 11 -36 12 -40
8 -33 62 -158 104 -242 38 -77 184 -305 204 -320 3 -3 26 -30 51 -60 63 -77
154 -166 228 -225 35 -27 75 -60 90 -72 15 -13 32 -23 39 -23 6 0 13 -4 15 -9
9 -25 258 -161 368 -200 19 -7 44 -17 55 -21 52 -22 268 -82 282 -79 4 1 19
-1 33 -4 79 -22 370 -34 495 -22 22 2 60 6 85 8 141 13 461 95 541 138 21 11
35 -5 37 -42 2 -36 28 -153 52 -234 11 -38 22 -74 23 -80 1 -5 7 -16 11 -24 6
-9 5 -12 -1 -8 -14 9 86 -230 136 -327 113 -214 306 -446 486 -587 39 -29 72
-57 73 -61 2 -5 10 -8 18 -8 8 0 14 -4 14 -10 0 -5 6 -10 13 -10 7 0 24 -10
38 -22 29 -26 53 -40 194 -111 115 -57 120 -59 200 -88 33 -11 67 -23 75 -26
8 -3 21 -7 29 -9 8 -1 26 -6 40 -10 14 -4 28 -8 31 -9 16 -4 69 -15 95 -20 17
-3 41 -7 55 -11 14 -3 43 -7 65 -9 22 -2 65 -7 95 -10 67 -8 241 -8 330 0 82
7 171 19 225 31 17 3 36 7 43 7 6 0 12 3 12 6 0 3 19 7 41 8 23 2 48 8 55 14
8 6 14 9 14 6 0 -3 25 3 57 14 31 10 59 17 61 14 3 -3 10 -1 16 4 6 5 47 23
91 39 44 16 98 38 120 48 22 10 42 18 45 19 3 1 50 24 105 53 95 50 148 79
241 133 71 42 333 194 352 204 19 11 348 201 372 215 8 5 50 29 92 54 43 26
79 46 82 46 2 0 45 25 95 55 51 30 94 55 97 55 3 0 18 8 32 18 15 11 54 34 87
52 68 38 138 78 210 121 28 16 57 33 65 36 8 4 17 9 20 12 3 4 16 12 30 18 14
7 46 25 72 40 25 15 86 51 135 79 48 28 106 61 128 74 22 12 60 34 85 48 25
14 56 33 69 44 13 10 28 18 33 18 5 0 33 16 63 35 30 19 55 32 55 29 0 -2 6 0
13 6 6 5 71 49 142 96 72 47 132 90 133 95 2 5 10 9 18 9 8 0 14 4 14 9 0 4
28 30 63 57 146 115 335 328 444 504 29 47 58 92 65 101 6 10 11 21 11 25 -1
5 7 20 16 34 10 14 30 54 45 90 15 36 34 79 41 95 15 35 61 179 69 215 3 14
10 42 15 64 5 21 8 47 6 57 -2 11 0 17 6 14 5 -4 9 2 10 12 0 10 2 27 4 38 29
144 26 446 -6 606 -6 30 -12 69 -15 88 -2 18 -9 42 -14 52 -6 10 -9 22 -8 26
1 4 -11 46 -27 93 -16 47 -30 87 -30 90 -11 48 -129 276 -191 369 -27 40 -53
81 -59 89 -5 9 -15 21 -21 27 -5 5 -22 27 -37 47 -61 84 -220 246 -318 326
l-59 47 42 35 c23 19 55 47 70 62 16 16 31 28 33 28 4 0 128 129 169 175 204
236 359 532 431 827 13 54 26 102 30 107 3 5 1 12 -5 16 -5 3 -10 12 -10 18 0
7 4 6 10 -3 8 -12 10 -12 11 5 0 11 2 29 5 40 10 46 17 157 17 256 -2 352 -90
673 -270 978 -46 78 -148 224 -193 275 -47 54 -302 306 -309 306 -5 0 -19 10
-32 21 -13 12 -40 33 -59 48 -19 14 -38 30 -42 36 -4 5 -8 6 -8 2 0 -4 -10 1
-22 12 -28 27 -218 143 -368 225 -30 16 -56 33 -58 38 -2 4 -7 8 -12 8 -5 0
-48 23 -97 51 -48 28 -104 60 -123 71 -19 11 -39 24 -45 28 -5 4 -35 21 -65
37 -30 17 -93 52 -140 79 -47 27 -97 55 -112 63 -16 8 -28 18 -28 23 0 5 -4 7
-9 4 -5 -3 -14 1 -21 9 -7 8 -16 15 -20 15 -11 0 -222 122 -238 137 -7 7 -18
13 -23 13 -5 0 -38 18 -74 40 -36 22 -68 40 -71 40 -3 0 -30 16 -60 35 -30 19
-56 35 -59 35 -2 0 -28 14 -57 31 -29 18 -66 40 -83 49 -16 10 -70 41 -120 70
-49 29 -108 62 -130 75 -39 22 -139 80 -200 115 -373 216 -458 261 -636 334
-119 49 -271 97 -344 110 -16 3 -40 7 -52 10 -11 2 -43 8 -70 12 -26 3 -57 9
-68 11 -24 6 -451 13 -456 8z m-529 -145 c-14 -11 -29 -20 -35 -20 -5 0 4 9
20 20 38 25 48 25 15 0z m-59 -43 c-10 -9 -11 -8 -5 6 3 10 9 15 12 12 3 -3 0
-11 -7 -18z m-21 -11 c0 -2 -8 -10 -17 -17 -16 -13 -17 -12 -4 4 13 16 21 21
21 13z m-82 -75 c-13 -15 -25 -27 -27 -25 -4 4 39 54 47 54 2 0 -7 -13 -20
-29z m-65 -66 c-3 -9 -8 -14 -10 -11 -3 3 -2 9 2 15 9 16 15 13 8 -4z m-356
-807 c-3 -8 -6 -5 -6 6 -1 11 2 17 5 13 3 -3 4 -12 1 -19z m1403 -141 c44 -6
161 -37 175 -45 5 -4 17 -7 25 -9 8 -1 23 -6 35 -12 11 -5 47 -22 80 -37 33
-16 83 -42 110 -59 28 -18 82 -49 120 -70 39 -21 87 -49 107 -62 21 -12 39
-23 42 -23 2 0 55 -30 117 -66 63 -37 148 -86 189 -109 41 -23 93 -52 115 -65
22 -13 55 -31 73 -41 18 -10 38 -22 45 -27 7 -5 37 -23 67 -39 63 -34 102 -57
203 -115 40 -23 90 -51 112 -62 22 -11 42 -23 45 -26 3 -4 30 -20 60 -37 59
-32 59 -32 250 -143 69 -40 145 -84 170 -98 25 -14 125 -72 222 -129 97 -57
179 -103 181 -103 3 0 29 -16 58 -35 30 -19 59 -35 66 -35 7 0 13 -4 13 -10 0
-5 5 -10 10 -10 6 0 34 -15 63 -33 29 -19 55 -33 59 -33 4 1 15 -9 23 -21 9
-13 22 -23 28 -23 7 0 18 -9 25 -20 7 -11 16 -20 21 -20 12 0 53 -41 111 -111
154 -183 203 -369 156 -584 -8 -38 -40 -110 -73 -165 -84 -141 -224 -269 -416
-379 -18 -10 -61 -36 -97 -56 -36 -21 -81 -47 -101 -59 l-36 -20 -62 37 c-34
20 -67 37 -72 37 -5 0 -9 4 -9 9 0 5 -9 13 -20 16 -11 4 -49 24 -85 46 -36 21
-67 39 -69 39 -3 0 -45 25 -95 55 -50 30 -95 55 -100 55 -5 0 -11 3 -13 8 -1
4 -16 14 -33 23 -16 8 -106 60 -200 114 -93 54 -186 107 -205 118 -19 10 -72
41 -118 68 -45 27 -85 49 -87 49 -2 0 -33 18 -67 40 -35 22 -69 40 -75 40 -7
0 -13 4 -13 9 0 5 -10 13 -22 17 -13 3 -30 12 -38 19 -8 7 -40 26 -70 42 -30
17 -154 88 -275 158 -121 70 -238 137 -260 150 -22 12 -62 35 -90 51 -27 16
-62 36 -77 43 -16 8 -28 18 -28 23 0 4 -9 8 -19 8 -11 0 -21 3 -23 8 -1 4 -46
32 -98 61 -115 65 -122 70 -280 161 -69 40 -145 84 -169 98 -25 14 -67 38 -93
53 -27 16 -53 29 -58 29 -6 0 -10 5 -10 11 0 5 -4 8 -9 5 -5 -4 -11 -3 -13 2
-3 8 -143 92 -153 92 -4 0 -27 14 -52 30 -24 17 -48 30 -52 30 -5 0 -11 11
-13 25 -3 14 -2 25 1 25 3 0 4 45 1 100 -3 55 -1 100 3 100 4 0 3 9 -3 20 -6
11 -7 20 -3 20 4 0 8 43 7 96 -1 112 34 296 69 359 6 11 12 22 12 25 0 3 16
34 35 70 40 73 143 183 210 222 119 69 284 97 440 75z m-1423 -119 c-3 -8 -6
-5 -6 6 -1 11 2 17 5 13 3 -3 4 -12 1 -19z m0 -240 c-3 -8 -6 -5 -6 6 -1 11 2
17 5 13 3 -3 4 -12 1 -19z m0 -240 c-3 -8 -6 -5 -6 6 -1 11 2 17 5 13 3 -3 4
-12 1 -19z m0 -240 c-3 -8 -6 -5 -6 6 -1 11 2 17 5 13 3 -3 4 -12 1 -19z m0
-240 c-3 -8 -6 -5 -6 6 -1 11 2 17 5 13 3 -3 4 -12 1 -19z m0 -400 c-3 -8 -6
-5 -6 6 -1 11 2 17 5 13 3 -3 4 -12 1 -19z m-1239 -113 c37 -9 99 -28 137 -42
81 -30 245 -113 245 -124 0 -5 7 -6 15 -3 8 4 15 1 15 -5 0 -6 15 -17 33 -26
41 -19 113 -59 130 -74 8 -6 17 -8 20 -4 4 3 7 -835 7 -1863 l0 -1869 -62 -35
c-34 -19 -84 -47 -111 -63 -28 -15 -55 -31 -61 -36 -6 -5 -40 -24 -76 -42 -36
-18 -71 -40 -78 -48 -8 -9 -11 -10 -7 -3 7 14 -11 17 -20 2 -3 -5 -15 -10 -26
-10 -10 0 -19 -3 -19 -7 0 -5 -10 -9 -23 -10 -12 0 -35 -7 -52 -14 -16 -6 -34
-13 -40 -14 -22 -6 -92 -17 -123 -20 -18 -2 -37 -7 -42 -10 -6 -3 -10 -2 -10
4 0 7 -8 7 -25 1 -13 -5 -26 -6 -29 -2 -3 5 -19 7 -35 6 -17 -1 -50 2 -73 8
-24 5 -50 11 -58 13 -8 2 -33 11 -55 21 -22 10 -43 17 -47 16 -5 -1 -8 3 -8 9
0 5 -4 7 -10 4 -5 -3 -10 -2 -10 2 0 5 -15 17 -34 27 -56 30 -128 109 -180
197 -62 104 -103 239 -121 399 -9 76 -8 2871 0 2956 4 38 11 79 16 90 4 12 6
24 3 26 -15 16 115 318 137 318 5 0 9 5 9 12 0 6 27 37 61 69 71 69 192 133
289 152 82 17 231 13 318 -8z m1239 -127 c-3 -8 -6 -5 -6 6 -1 11 2 17 5 13 3
-3 4 -12 1 -19z m0 -240 c-3 -8 -6 -5 -6 6 -1 11 2 17 5 13 3 -3 4 -12 1 -19z
m0 -240 c-3 -8 -6 -5 -6 6 -1 11 2 17 5 13 3 -3 4 -12 1 -19z m0 -240 c-3 -8
-6 -5 -6 6 -1 11 2 17 5 13 3 -3 4 -12 1 -19z m678 -198 c4 -6 10 -8 14 -6 4
3 17 -2 28 -12 10 -9 35 -25 54 -36 97 -52 145 -80 159 -91 8 -7 30 -18 48
-26 17 -8 32 -17 32 -21 0 -5 4 -8 9 -8 5 0 74 -38 155 -85 80 -47 148 -85
151 -85 3 0 11 -5 18 -10 15 -13 487 -287 612 -355 28 -15 52 -30 55 -34 3 -3
21 -14 40 -23 19 -10 42 -22 50 -28 41 -28 414 -240 421 -240 5 0 9 -4 9 -9 0
-5 11 -12 25 -15 14 -4 25 -10 25 -14 0 -6 -101 -67 -279 -167 -20 -11 -68
-40 -108 -63 -39 -23 -76 -42 -82 -42 -6 0 -11 -3 -11 -7 0 -5 -10 -13 -23
-19 -12 -6 -62 -34 -111 -62 -49 -29 -93 -52 -97 -52 -5 0 -9 -4 -9 -9 0 -5
-12 -14 -27 -20 -16 -6 -62 -31 -103 -56 -41 -25 -88 -52 -105 -61 -16 -8 -43
-23 -60 -33 -34 -20 -173 -101 -475 -276 -113 -65 -258 -148 -322 -186 l-117
-68 -3 105 c-2 57 1 104 5 104 4 0 3 9 -3 20 -6 11 -7 20 -3 20 4 0 6 36 3 80
-3 44 -1 80 3 80 4 0 3 9 -3 20 -8 14 -8 20 0 20 8 0 8 6 0 20 -8 14 -8 20 0
20 8 0 8 6 0 20 -8 14 -8 20 0 20 8 0 8 6 0 20 -8 14 -8 20 0 20 8 0 8 6 0 20
-8 14 -8 20 0 20 8 0 8 6 0 20 -8 14 -8 20 0 20 8 0 8 6 0 20 -8 14 -8 20 0
20 8 0 8 6 0 20 -8 14 -8 20 0 20 8 0 8 6 0 20 -8 14 -8 20 0 20 8 0 8 6 0 20
-8 14 -8 20 0 20 8 0 8 6 0 20 -8 14 -8 20 0 20 8 0 8 6 0 20 -8 14 -8 20 0
20 8 0 8 6 0 20 -8 14 -8 20 0 20 8 0 8 6 0 20 -8 14 -8 20 0 20 8 0 8 6 0 20
-6 11 -7 20 -3 20 4 0 6 36 3 80 -3 44 -1 80 3 80 4 0 3 9 -3 20 -6 11 -7 20
-3 20 4 0 6 45 3 100 -3 55 -1 100 3 100 4 0 3 9 -3 20 -6 11 -7 20 -3 20 4 0
6 45 3 100 -3 55 -1 100 3 100 4 0 3 9 -3 20 -6 11 -7 20 -3 20 4 0 6 45 3
100 -3 55 -1 100 3 100 4 0 3 9 -3 20 -6 11 -7 20 -3 20 4 0 6 45 3 100 -3 55
-1 100 3 100 4 0 3 9 -3 20 -6 11 -7 20 -2 20 5 0 7 14 4 30 -4 29 10 41 23
20z m-678 -42 c-3 -8 -6 -5 -6 6 -1 11 2 17 5 13 3 -3 4 -12 1 -19z m0 -240
c-3 -8 -6 -5 -6 6 -1 11 2 17 5 13 3 -3 4 -12 1 -19z m0 -240 c-3 -8 -6 -5 -6
6 -1 11 2 17 5 13 3 -3 4 -12 1 -19z m0 -240 c-3 -8 -6 -5 -6 6 -1 11 2 17 5
13 3 -3 4 -12 1 -19z m0 -240 c-3 -8 -6 -5 -6 6 -1 11 2 17 5 13 3 -3 4 -12 1
-19z m0 -240 c-3 -8 -6 -5 -6 6 -1 11 2 17 5 13 3 -3 4 -12 1 -19z m0 -240
c-3 -8 -6 -5 -6 6 -1 11 2 17 5 13 3 -3 4 -12 1 -19z m0 -240 c-3 -8 -6 -5 -6
6 -1 11 2 17 5 13 3 -3 4 -12 1 -19z m3915 -145 c6 -7 14 -13 19 -13 5 0 28
-12 52 -27 23 -15 44 -28 47 -28 3 0 16 -8 30 -17 14 -8 59 -35 100 -59 141
-80 243 -169 327 -283 53 -71 103 -177 119 -251 11 -47 12 -217 2 -250 -5 -16
-11 -41 -14 -54 -6 -31 -77 -167 -106 -206 -49 -64 -196 -203 -239 -225 -13
-7 -26 -16 -29 -20 -8 -10 -250 -150 -261 -150 -5 0 -9 -4 -9 -9 0 -5 -8 -11
-17 -14 -10 -4 -36 -16 -58 -29 -88 -51 -333 -193 -378 -220 -26 -15 -52 -28
-57 -28 -6 0 -10 -4 -10 -10 0 -5 -4 -10 -10 -10 -7 0 -119 -61 -200 -110 -45
-27 -128 -76 -145 -85 -70 -38 -121 -70 -127 -80 -4 -5 -8 -7 -8 -3 0 4 -24
-7 -52 -24 -29 -17 -120 -70 -203 -118 -82 -48 -166 -97 -185 -109 -19 -11
-42 -24 -50 -28 -8 -4 -49 -27 -90 -51 -41 -25 -88 -53 -105 -62 -16 -9 -99
-57 -183 -106 -234 -136 -265 -154 -292 -167 -14 -6 -28 -16 -32 -22 -4 -5 -8
-7 -8 -3 0 4 -15 -1 -34 -11 -59 -33 -205 -76 -292 -85 -13 -2 -26 -5 -28 -7
-9 -8 -211 2 -211 11 0 1 -13 4 -30 6 -32 5 -163 64 -191 86 -32 25 -129 123
-142 143 -7 11 -22 36 -35 55 -12 19 -21 38 -19 43 1 4 -3 7 -8 7 -6 0 -10 8
-10 18 0 10 -5 23 -11 29 -6 6 -12 17 -13 24 -1 8 -10 39 -19 69 -17 57 -28
107 -33 150 -1 14 -3 25 -4 25 -1 0 -3 23 -5 52 -1 28 -6 56 -9 62 -4 6 -3 11
2 11 4 0 6 23 2 50 -4 28 -2 50 2 50 5 0 6 5 2 11 -11 18 -10 148 0 141 5 -3
6 2 3 11 -4 10 -10 24 -13 32 -3 8 -2 15 4 15 6 0 8 8 5 18 -4 18 1 21 232
151 33 19 62 37 65 40 3 3 23 15 45 27 22 11 128 71 235 133 107 63 215 125
240 139 25 14 78 45 118 69 41 24 75 43 77 43 5 0 380 219 392 230 7 5 15 10
18 10 5 0 80 43 565 323 163 95 199 115 253 146 130 73 204 118 215 128 7 7
22 13 32 13 10 0 20 4 22 8 4 11 213 132 227 132 6 0 11 5 11 10 0 6 4 10 10
10 5 0 38 17 72 38 35 21 83 50 108 64 119 67 246 141 254 149 13 12 55 7 68
-8z m-3915 -95 c-3 -8 -6 -5 -6 6 -1 11 2 17 5 13 3 -3 4 -12 1 -19z m0 -240
c-3 -8 -6 -5 -6 6 -1 11 2 17 5 13 3 -3 4 -12 1 -19z m0 -200 c-3 -7 -5 -2 -5
12 0 14 2 19 5 13 2 -7 2 -19 0 -25z m0 -80 c-3 -8 -6 -5 -6 6 -1 11 2 17 5
13 3 -3 4 -12 1 -19z m-2717 -12 c0 -3 -4 -8 -10 -11 -5 -3 -10 -1 -10 4 0 6
5 11 10 11 6 0 10 -2 10 -4z m8533 -126 c3 -11 1 -18 -4 -14 -5 3 -9 12 -9 20
0 20 7 17 13 -6z m24 -102 c-3 -8 -6 -5 -6 6 -1 11 2 17 5 13 3 -3 4 -12 1
-19z m23 -82 c0 -26 -6 -18 -14 19 -5 22 -4 26 4 15 5 -8 10 -24 10 -34z
m-5060 -86 c0 -5 -5 -10 -11 -10 -5 0 -7 5 -4 10 3 6 8 10 11 10 2 0 4 -4 4
-10z m-606 -1909 c-2 -3 -12 3 -22 13 -16 17 -16 18 5 5 12 -7 20 -15 17 -18z
m201 -199 c-3 -3 -11 0 -18 7 -9 10 -8 11 6 5 10 -3 15 -9 12 -12z"/>
</g>
</svg>
