<svg width="677" height="280" viewBox="0 0 677 280" fill="none" xmlns="http://www.w3.org/2000/svg">
<rect width="677" height="280" fill="#4090B6"/>
<mask id="mask0_199_2045" style="mask-type:alpha" maskUnits="userSpaceOnUse" x="256" y="0" width="421" height="280">
<rect x="256" y="280" width="280" height="421" transform="rotate(-90 256 280)" fill="#184377"/>
</mask>
<g mask="url(#mask0_199_2045)">
<path d="M673.996 91.894L825.11 4.56193C852.913 -11.4653 887.911 8.48698 887.911 40.8685L887.911 215.533C887.911 247.914 853.24 267.867 825.11 251.839L673.996 164.507C646.194 148.48 646.194 108.248 673.996 91.894Z" fill="#F89521"/>
<path d="M668.435 170.395L819.549 257.727C847.352 273.754 847.352 313.986 819.549 330.34L668.435 417.672C640.633 433.699 605.962 413.42 605.962 381.366L605.962 206.701C605.962 174.32 640.633 154.368 668.435 170.395Z" fill="#037297"/>
<path d="M598.439 258.381L598.439 433.045C598.439 465.427 563.768 485.379 535.639 469.352L384.852 382.02C357.049 365.992 357.049 325.761 384.852 309.406L535.966 222.074C563.768 206.047 598.439 225.999 598.439 258.381Z" fill="#B7DCAF"/>
<path d="M754.786 -112.535C778.009 -141.646 809.737 -158 844.081 -158C885.293 -158 922.581 -134.45 946.132 -93.564L1021.36 36.6164C1044.91 77.5022 1046.55 121.659 1025.94 157.311C1008.61 187.076 978.84 206.374 941.879 211.935M754.786 -112.535C731.563 -141.646 699.835 -158 665.491 -158C624.278 -158 586.991 -134.45 563.44 -93.564L488.211 36.6164C464.66 77.5022 463.025 121.659 483.631 157.311C500.967 187.076 530.732 206.374 567.693 211.935C570.309 205.066 573.58 198.524 577.505 191.655L606.943 140.63L590.261 140.63C547.413 140.63 530.078 110.211 551.338 73.2501L626.568 -56.9304C637.362 -75.5743 651.427 -84.7327 665.491 -84.7327C679.556 -84.7327 693.621 -75.5743 704.415 -56.9304L712.592 -42.5385L736.469 -1.32567L754.786 30.4018M754.786 -112.535C759.365 -106.648 763.617 -100.433 767.542 -93.564L796.98 -42.8656L902.629 140.63M941.879 211.935C934.684 212.916 927.161 213.57 919.31 213.57L860.435 213.57L648.81 213.57M941.879 211.935C955.617 246.606 953.982 282.258 936.646 312.35C916.04 348.003 877.116 368.609 829.689 368.609L679.229 368.609C632.129 368.609 593.205 348.003 572.272 312.35C554.936 282.585 553.301 246.933 567.038 211.935C569.655 205.066 572.926 198.197 576.851 191.655L606.289 140.63L711.938 -42.8656M754.786 30.4018L691.004 140.63M754.786 30.4018L860.762 213.57M754.786 30.4018L818.241 140.63M691.004 140.63L672.687 172.684L648.81 213.897L640.633 228.289C619.045 265.25 636.708 295.342 679.556 295.342L830.016 295.342C872.864 295.342 890.2 264.923 868.939 227.962L860.762 213.57M691.004 140.63L754.459 30.0746L736.142 -1.65273L712.265 -42.8656L606.616 140.63L577.178 191.655C573.253 198.197 569.982 205.066 567.365 211.935M860.762 213.57L919.638 213.57C927.488 213.57 935.011 212.916 942.207 211.935C955.944 246.606 954.309 282.258 936.973 312.35C916.367 348.003 877.443 368.609 830.016 368.609L679.556 368.609C632.456 368.609 593.532 348.003 572.599 312.35C555.263 282.585 553.628 246.933 567.365 211.935M567.365 211.935C530.405 206.374 500.64 187.076 483.304 157.311C462.698 121.659 464.333 77.5022 487.883 36.6164L563.113 -93.564C586.664 -134.45 623.951 -158 665.164 -158C699.508 -158 731.236 -141.646 754.459 -112.535C759.038 -106.648 763.29 -100.433 767.215 -93.564L796.653 -42.8656L902.302 140.63" stroke="#184377" stroke-width="1.31489" stroke-miterlimit="10"/>
<path d="M818.241 140.63L855.202 140.63L902.63 140.63L919.311 140.63C962.159 140.63 979.495 110.211 958.234 73.25L883.004 -56.9304C872.211 -75.5744 858.146 -84.7328 844.081 -84.7328C830.016 -84.7328 815.952 -75.5744 805.158 -56.9304L796.981 -42.5386L767.543 -93.237C763.618 -100.106 759.366 -106.32 754.787 -112.208C778.01 -141.319 809.737 -157.673 844.081 -157.673C885.294 -157.673 922.582 -134.123 946.132 -93.237L1021.36 36.6163C1044.91 77.5021 1046.55 121.659 1025.94 157.311C1008.61 187.076 978.841 206.374 941.88 211.935C934.684 212.916 927.161 213.57 919.311 213.57L860.436 213.57L648.811 213.57L672.688 172.357L691.005 140.303" stroke="#184377" stroke-width="1.31489" stroke-miterlimit="10"/>
</g>
</svg>
