<svg width="421" height="280" viewBox="0 0 421 280" fill="none" xmlns="http://www.w3.org/2000/svg">
<mask id="mask0_199_2047" style="mask-type:alpha" maskUnits="userSpaceOnUse" x="0" y="0" width="421" height="280">
<rect y="280" width="280" height="421" transform="rotate(-90 0 280)" fill="#184377"/>
</mask>
<g mask="url(#mask0_199_2047)">
<path d="M417.996 91.894L569.11 4.56193C596.913 -11.4653 631.911 8.48698 631.911 40.8685L631.911 215.533C631.911 247.914 597.24 267.867 569.11 251.839L417.996 164.507C390.194 148.48 390.194 108.248 417.996 91.894Z" fill="#F89521"/>
<path d="M412.435 170.395L563.549 257.727C591.352 273.754 591.352 313.986 563.549 330.34L412.435 417.672C384.633 433.699 349.962 413.42 349.962 381.366L349.962 206.701C349.962 174.32 384.633 154.368 412.435 170.395Z" fill="#037297"/>
<path d="M342.439 258.381L342.439 433.045C342.439 465.427 307.768 485.379 279.639 469.352L128.852 382.02C101.049 365.992 101.049 325.761 128.852 309.406L279.966 222.074C307.768 206.047 342.439 225.999 342.439 258.381Z" fill="#B7DCAF"/>
<path d="M498.786 -112.535C522.009 -141.646 553.737 -158 588.081 -158C629.293 -158 666.581 -134.45 690.132 -93.564L765.361 36.6164C788.912 77.5022 790.547 121.659 769.941 157.311C752.605 187.076 722.84 206.374 685.879 211.935M498.786 -112.535C475.563 -141.646 443.835 -158 409.491 -158C368.278 -158 330.991 -134.45 307.44 -93.564L232.211 36.6164C208.66 77.5022 207.025 121.659 227.631 157.311C244.967 187.076 274.732 206.374 311.693 211.935C314.309 205.066 317.58 198.524 321.505 191.655L350.943 140.63L334.261 140.63C291.413 140.63 274.078 110.211 295.338 73.2501L370.568 -56.9304C381.362 -75.5743 395.427 -84.7327 409.491 -84.7327C423.556 -84.7327 437.621 -75.5743 448.415 -56.9304L456.592 -42.5385L480.469 -1.32567L498.786 30.4018M498.786 -112.535C503.365 -106.648 507.617 -100.433 511.542 -93.564L540.98 -42.8656L646.629 140.63M685.879 211.935C678.684 212.916 671.161 213.57 663.31 213.57L604.435 213.57L392.81 213.57M685.879 211.935C699.617 246.606 697.982 282.258 680.646 312.35C660.04 348.003 621.116 368.609 573.689 368.609L423.229 368.609C376.129 368.609 337.205 348.003 316.272 312.35C298.936 282.585 297.301 246.933 311.038 211.935C313.655 205.066 316.926 198.197 320.851 191.655L350.289 140.63L455.938 -42.8656M498.786 30.4018L435.004 140.63M498.786 30.4018L604.762 213.57M498.786 30.4018L562.241 140.63M435.004 140.63L416.687 172.684L392.81 213.897L384.633 228.289C363.045 265.25 380.708 295.342 423.556 295.342L574.016 295.342C616.864 295.342 634.2 264.923 612.939 227.962L604.762 213.57M435.004 140.63L498.459 30.0746L480.142 -1.65273L456.265 -42.8656L350.616 140.63L321.178 191.655C317.253 198.197 313.982 205.066 311.365 211.935M604.762 213.57L663.638 213.57C671.488 213.57 679.011 212.916 686.207 211.935C699.944 246.606 698.309 282.258 680.973 312.35C660.367 348.003 621.443 368.609 574.016 368.609L423.556 368.609C376.456 368.609 337.532 348.003 316.599 312.35C299.263 282.585 297.628 246.933 311.365 211.935M311.365 211.935C274.405 206.374 244.64 187.076 227.304 157.311C206.698 121.659 208.333 77.5022 231.883 36.6164L307.113 -93.564C330.664 -134.45 367.951 -158 409.164 -158C443.508 -158 475.236 -141.646 498.459 -112.535C503.038 -106.648 507.29 -100.433 511.215 -93.564L540.653 -42.8656L646.302 140.63" stroke="#184377" stroke-width="1.31489" stroke-miterlimit="10"/>
<path d="M562.241 140.63L599.202 140.63L646.63 140.63L663.311 140.63C706.159 140.63 723.495 110.211 702.234 73.25L627.004 -56.9304C616.211 -75.5744 602.146 -84.7328 588.081 -84.7328C574.016 -84.7328 559.952 -75.5744 549.158 -56.9304L540.981 -42.5386L511.543 -93.237C507.618 -100.106 503.366 -106.32 498.787 -112.208C522.01 -141.319 553.737 -157.673 588.081 -157.673C629.294 -157.673 666.582 -134.123 690.132 -93.237L765.362 36.6163C788.912 77.5021 790.548 121.659 769.941 157.311C752.606 187.076 722.841 206.374 685.88 211.935C678.684 212.916 671.161 213.57 663.311 213.57L604.436 213.57L392.811 213.57L416.688 172.357L435.005 140.303" stroke="#184377" stroke-width="1.31489" stroke-miterlimit="10"/>
</g>
</svg>
