<?xml version="1.0" encoding="utf-8"?>
<!-- Generator: Adobe Illustrator 26.3.1, SVG Export Plug-In . SVG Version: 6.00 Build 0)  -->
<svg version="1.1" id="Layer_1" xmlns="http://www.w3.org/2000/svg" xmlns:xlink="http://www.w3.org/1999/xlink" x="0px" y="0px"
	 viewBox="0 0 798 734" style="enable-background:new 0 0 798 734;" xml:space="preserve">
<style type="text/css">
	.st0{fill:none;stroke:#B6DCAE;stroke-width:1.3149;stroke-miterlimit:10;}
</style>
<path class="st0" d="M400.5,66.6C432.5,26.5,476.2,4,523.5,4c56.7,0,108.1,32.4,140.5,88.7l103.6,179.2
	c32.4,56.3,34.7,117.1,6.3,166.2c-23.9,41-64.8,67.5-115.7,75.2 M400.5,66.6C368.5,26.5,324.9,4,277.6,4
	c-56.7,0-108.1,32.4-140.5,88.7L33.5,271.9C1.1,328.2-1.2,389,27.2,438.1c23.9,41,64.8,67.5,115.7,75.2c3.6-9.5,8.1-18.5,13.5-27.9
	l40.5-70.2h-23c-59,0-82.9-41.9-53.6-92.8L224,143.1c14.9-25.7,34.2-38.3,53.6-38.3c19.4,0,38.7,12.6,53.6,38.3l11.3,19.8l32.9,56.7
	l25.2,43.7 M400.5,66.6c6.3,8.1,12.2,16.7,17.6,26.1l40.5,69.8l145.5,252.6 M658.1,513.3c-9.9,1.4-20.3,2.3-31.1,2.3H546H254.6
	 M658.1,513.3c18.9,47.7,16.7,96.8-7.2,138.2c-28.4,49.1-82,77.5-147.3,77.5H296.5c-64.8,0-118.4-28.4-147.3-77.5
	c-23.9-41-26.1-90.1-7.2-138.2c3.6-9.5,8.1-18.9,13.5-27.9l40.5-70.2l145.5-252.6 M400.5,263.4l-87.8,151.8 M400.5,263.4
	l145.9,252.2 M400.5,263.4l87.4,151.8 M312.7,415.1l-25.2,44.1L254.6,516l-11.3,19.8c-29.7,50.9-5.4,92.3,53.6,92.3h207.1
	c59,0,82.9-41.9,53.6-92.8l-11.3-19.8 M312.7,415.1l87.4-152.2l-25.2-43.7L342,162.5L196.5,415.1L156,485.4
	c-5.4,9-9.9,18.5-13.5,27.9 M546.4,515.6h81.1c10.8,0,21.2-0.9,31.1-2.3c18.9,47.7,16.7,96.8-7.2,138.2
	c-28.4,49.1-82,77.5-147.3,77.5H296.9c-64.8,0-118.4-28.4-147.3-77.5c-23.9-41-26.1-90.1-7.2-138.2 M142.5,513.3
	c-50.9-7.7-91.9-34.2-115.7-75.2C-1.6,389,0.6,328.2,33.1,271.9L136.6,92.7C169.1,36.4,220.4,4,277.1,4c47.3,0,91,22.5,122.9,62.6
	c6.3,8.1,12.2,16.7,17.6,26.1l40.5,69.8l145.5,252.6"/>
<path class="st0" d="M487.9,415.1h50.9h65.3h23c59,0,82.9-41.9,53.6-92.8L577,143.1c-14.9-25.7-34.2-38.3-53.6-38.3
	c-19.4,0-38.7,12.6-53.6,38.3L458.6,163l-40.5-69.8c-5.4-9.5-11.3-18-17.6-26.1c32-40.1,75.7-62.6,122.9-62.6
	c56.7,0,108.1,32.4,140.5,88.7l103.6,178.8c32.4,56.3,34.7,117.1,6.3,166.2c-23.9,41-64.8,67.5-115.7,75.2
	c-9.9,1.4-20.3,2.3-31.1,2.3H546H254.6l32.9-56.7l25.2-44.1"/>
</svg>
