<svg width="398" height="330" viewBox="0 0 398 330" fill="none" xmlns="http://www.w3.org/2000/svg">
<mask id="mask0_728_2377" style="mask-type:alpha" maskUnits="userSpaceOnUse" x="0" y="0" width="398" height="330">
<rect x="398" y="330" width="398" height="330" transform="rotate(-180 398 330)" fill="#184377"/>
</mask>
<g mask="url(#mask0_728_2377)">
<path d="M217.894 167.004L130.562 15.8898C114.535 -11.9126 134.487 -46.9108 166.869 -46.9108H341.533C373.914 -46.9108 393.867 -12.2397 377.839 15.8898L290.507 167.004C274.48 194.806 234.248 194.806 217.894 167.004Z" fill="#FBB261"/>
<path d="M296.395 172.564L383.727 21.4503C399.754 -6.35201 439.986 -6.35201 456.34 21.4503L543.672 172.564C559.699 200.367 539.42 235.038 507.366 235.038H332.701C300.32 235.038 280.368 200.367 296.395 172.564Z" fill="#184377"/>
<path d="M384.381 242.561H559.045C591.427 242.561 611.379 277.232 595.352 305.361L508.02 456.148C491.992 483.951 451.761 483.951 435.406 456.148L348.074 305.034C332.047 277.232 351.999 242.561 384.381 242.561Z" fill="#FFD868"/>
<path d="M13.4649 86.2135C-15.6457 62.9904 -32.0001 31.263 -32.0001 -3.08111C-32.0001 -44.294 -8.44984 -81.5818 32.436 -105.132L162.616 -180.362C203.502 -203.912 247.659 -205.548 283.311 -184.941C313.076 -167.606 332.374 -137.841 337.935 -100.88M13.4649 86.2135C-15.6457 109.437 -32.0001 141.164 -32.0001 175.508C-32.0001 216.721 -8.44984 254.009 32.436 277.559L162.616 352.789C203.502 376.339 247.659 377.975 283.311 357.368C313.076 340.033 332.374 310.268 337.935 273.307C331.066 270.69 324.524 267.419 317.655 263.494L266.63 234.057V250.738C266.63 293.586 236.211 310.922 199.25 289.661L69.0696 214.431C50.4257 203.638 41.2673 189.573 41.2673 175.508C41.2673 161.443 50.4257 147.379 69.0696 136.585L83.4615 128.408L124.674 104.53L156.402 86.2135M13.4649 86.2135C19.3525 81.6343 25.5672 77.3822 32.436 73.4571L83.1344 44.0194L266.63 -61.6295M337.935 -100.88C338.916 -93.684 339.57 -86.161 339.57 -78.311V-19.4354V192.19M337.935 -100.88C372.606 -114.618 408.258 -112.982 438.35 -95.6466C474.003 -75.0401 494.609 -36.1168 494.609 11.3107V161.77C494.609 208.871 474.003 247.794 438.35 268.728C408.585 286.063 372.933 287.699 337.935 273.961C331.066 271.344 324.197 268.074 317.655 264.149L266.63 234.711L83.1344 129.062M156.402 86.2135L266.63 149.995M156.402 86.2135L339.57 -19.7625M156.402 86.2135L266.63 22.7588M266.63 149.995L298.684 168.312L339.897 192.19L354.289 200.367C391.25 221.954 421.342 204.292 421.342 161.443V10.9836C421.342 -31.8647 390.923 -49.2003 353.962 -27.9396L339.57 -19.7625M266.63 149.995L156.075 86.5406L124.347 104.857L83.1344 128.735L266.63 234.384L317.655 263.821C324.197 267.746 331.066 271.017 337.935 273.634M339.57 -19.7625V-78.638C339.57 -86.4881 338.916 -94.0111 337.935 -101.207C372.606 -114.945 408.258 -113.309 438.35 -95.9736C474.003 -75.3672 494.609 -36.4439 494.609 10.9836V161.443C494.609 208.544 474.003 247.467 438.35 268.401C408.585 285.736 372.933 287.372 337.935 273.634M337.935 273.634C332.374 310.595 313.076 340.36 283.311 357.695C247.659 378.302 203.502 376.666 162.616 353.116L32.436 277.886C-8.44984 254.336 -32.0001 217.048 -32.0001 175.835C-32.0001 141.491 -15.6457 109.764 13.4649 86.5406C19.3525 81.9614 25.5672 77.7092 32.436 73.7842L83.1344 44.3464L266.63 -61.3025" stroke="#F79321" stroke-width="1.31489" stroke-miterlimit="10"/>
<path d="M266.63 22.7587V-14.2021V-61.6296V-78.3111C266.63 -121.159 236.211 -138.495 199.25 -117.234L69.0696 -42.0045C50.4256 -31.2106 41.2672 -17.1459 41.2672 -3.08119C41.2672 10.9835 50.4256 25.0483 69.0696 35.8421L83.4614 44.0193L32.763 73.4571C25.8942 77.3821 19.6795 81.6342 13.792 86.2134C-15.3187 62.9903 -31.673 31.2629 -31.673 -3.08119C-31.673 -44.2941 -8.12281 -81.5819 32.763 -105.132L162.616 -180.362C203.502 -203.912 247.659 -205.548 283.311 -184.941C313.076 -167.606 332.374 -137.841 337.935 -100.88C338.916 -93.6841 339.57 -86.1612 339.57 -78.3111V-19.4355V192.189L298.357 168.312L266.303 149.995" stroke="#F79321" stroke-width="1.31489" stroke-miterlimit="10"/>
</g>
</svg>
