<svg width="398" height="330" viewBox="0 0 398 330" fill="none" xmlns="http://www.w3.org/2000/svg">
<mask id="mask0_728_2369" style="mask-type:alpha" maskUnits="userSpaceOnUse" x="0" y="0" width="398" height="330">
<rect width="398" height="330" fill="#184377"/>
</mask>
<g mask="url(#mask0_728_2369)">
<path d="M180.106 162.996L267.438 314.11C283.465 341.913 263.513 376.911 231.131 376.911H56.4673C24.0857 376.911 4.13344 342.24 20.1607 314.11L107.493 162.996C123.52 135.194 163.752 135.194 180.106 162.996Z" fill="#FBB261"/>
<path d="M101.605 157.436L14.2731 308.55C-1.75409 336.352 -41.9857 336.352 -58.34 308.55L-145.672 157.436C-161.699 129.633 -141.42 94.9622 -109.366 94.9622H65.2986C97.6802 94.9622 117.632 129.633 101.605 157.436Z" fill="#184377"/>
<path d="M13.619 87.4392H-161.045C-193.427 87.4392 -213.379 52.768 -197.352 24.6386L-110.02 -126.148C-93.9924 -153.951 -53.7608 -153.951 -37.4065 -126.148L49.9256 24.9657C65.9529 52.768 46.0006 87.4392 13.619 87.4392Z" fill="#FFD868"/>
<path d="M384.535 243.786C413.646 267.01 430 298.737 430 333.081C430 374.294 406.45 411.582 365.564 435.132L235.384 510.362C194.498 533.912 150.341 535.548 114.689 514.941C84.9238 497.606 65.6258 467.841 60.0653 430.88M384.535 243.786C413.646 220.563 430 188.836 430 154.492C430 113.279 406.45 75.9911 365.564 52.4409L235.384 -22.789C194.498 -46.3392 150.341 -47.9746 114.689 -27.3682C84.9238 -10.0326 65.6258 19.7323 60.0653 56.693C66.9341 59.3097 73.4758 62.5806 80.3446 66.5057L131.37 95.9434V79.262C131.37 36.4137 161.789 19.0781 198.75 40.3387L328.93 115.569C347.574 126.362 356.733 140.427 356.733 154.492C356.733 168.557 347.574 182.621 328.93 193.415L314.539 201.592L273.326 225.47L241.598 243.786M384.535 243.786C378.647 248.366 372.433 252.618 365.564 256.543L314.866 285.981L131.37 391.63M60.0653 430.88C59.084 423.684 58.4299 416.161 58.4299 408.311V349.435V137.81M60.0653 430.88C25.3941 444.618 -10.2583 442.982 -40.3503 425.647C-76.0027 405.04 -96.6091 366.117 -96.6091 318.689V168.23C-96.6091 121.129 -76.0027 82.2058 -40.3503 61.2723C-10.5854 43.9367 25.067 42.3012 60.0653 56.0389C66.9341 58.6556 73.8029 61.9264 80.3446 65.8515L131.37 95.2892L314.866 200.938M241.598 243.786L131.37 180.005M241.598 243.786L58.4299 349.762M241.598 243.786L131.37 307.241M131.37 180.005L99.3157 161.688L58.1028 137.81L43.711 129.633C6.75019 108.046 -23.3418 125.708 -23.3418 168.557V319.016C-23.3418 361.865 7.07727 379.2 44.038 357.94L58.4299 349.762M131.37 180.005L241.925 243.459L273.653 225.143L314.866 201.265L131.37 95.6163L80.3446 66.1785C73.8029 62.2535 66.9341 58.9827 60.0653 56.366M58.4299 349.762V408.638C58.4299 416.488 59.084 424.011 60.0653 431.207C25.3941 444.945 -10.2583 443.309 -40.3503 425.974C-76.0027 405.367 -96.6091 366.444 -96.6091 319.016V168.557C-96.6091 121.456 -76.0027 82.5329 -40.3503 61.5993C-10.5854 44.2638 25.067 42.6283 60.0653 56.366M60.0653 56.366C65.6258 19.4052 84.9238 -10.3597 114.689 -27.6953C150.341 -48.3017 194.498 -46.6663 235.384 -23.116L365.564 52.1138C406.45 75.6641 430 112.952 430 154.165C430 188.509 413.646 220.236 384.535 243.459C378.647 248.039 372.433 252.291 365.564 256.216L314.866 285.654L131.37 391.302" stroke="#F79321" stroke-width="1.31489" stroke-miterlimit="10"/>
<path d="M131.37 307.241V344.202V391.629V408.311C131.37 451.159 161.789 468.495 198.75 447.234L328.93 372.004C347.574 361.21 356.733 347.146 356.733 333.081C356.733 319.016 347.574 304.951 328.93 294.158L314.539 285.98L365.237 256.543C372.106 252.618 378.32 248.366 384.208 243.786C413.319 267.009 429.673 298.737 429.673 333.081C429.673 374.294 406.123 411.582 365.237 435.132L235.384 510.362C194.498 533.912 150.341 535.547 114.689 514.941C84.9239 497.605 65.6258 467.841 60.0654 430.88C59.0841 423.684 58.4299 416.161 58.4299 408.311V349.435V137.81L99.6428 161.688L131.697 180.004" stroke="#F79321" stroke-width="1.31489" stroke-miterlimit="10"/>
</g>
</svg>
