<svg width="398" height="573" viewBox="0 0 398 573" fill="none" xmlns="http://www.w3.org/2000/svg">
<mask id="mask0_4:968" style="mask-type:alpha" maskUnits="userSpaceOnUse" x="0" y="0" width="398" height="573">
<rect width="398" height="573" fill="#184377"/>
</mask>
<g mask="url(#mask0_4:968)">
<path d="M180.106 405.996L267.438 557.11C283.465 584.913 263.513 619.911 231.131 619.911H56.4673C24.0857 619.911 4.13344 585.24 20.1607 557.11L107.493 405.996C123.52 378.194 163.752 378.194 180.106 405.996Z" fill="#F89521"/>
<path d="M101.605 400.436L14.2731 551.55C-1.75409 579.352 -41.9857 579.352 -58.34 551.55L-145.672 400.436C-161.699 372.633 -141.42 337.962 -109.366 337.962H65.2986C97.6802 337.962 117.632 372.633 101.605 400.436Z" fill="#037297"/>
<path d="M13.619 330.439H-161.045C-193.427 330.439 -213.379 295.768 -197.352 267.639L-110.02 116.852C-93.9924 89.0494 -53.7608 89.0494 -37.4065 116.852L49.9256 267.966C65.9529 295.768 46.0006 330.439 13.619 330.439Z" fill="#B7DCAF"/>
<path d="M384.535 486.786C413.646 510.01 430 541.737 430 576.081C430 617.294 406.45 654.582 365.564 678.132L235.384 753.362C194.498 776.912 150.341 778.547 114.689 757.941C84.9238 740.605 65.6258 710.841 60.0653 673.88M384.535 486.786C413.646 463.563 430 431.836 430 397.492C430 356.279 406.45 318.991 365.564 295.441L235.384 220.211C194.498 196.661 150.341 195.025 114.689 215.632C84.9238 232.967 65.6258 262.732 60.0653 299.693C66.9341 302.31 73.4758 305.58 80.3446 309.506L131.37 338.943V322.262C131.37 279.414 161.789 262.078 198.75 283.339L328.93 358.568C347.574 369.362 356.733 383.427 356.733 397.492C356.733 411.556 347.574 425.621 328.93 436.415L314.539 444.592L273.326 468.47L241.598 486.786M384.535 486.786C378.647 491.366 372.433 495.618 365.564 499.543L314.866 528.981L131.37 634.629M60.0653 673.88C59.084 666.684 58.4299 659.161 58.4299 651.311V592.435V380.81M60.0653 673.88C25.3941 687.617 -10.2583 685.982 -40.3503 668.646C-76.0027 648.04 -96.6091 609.117 -96.6091 561.689V411.229C-96.6091 364.129 -76.0027 325.206 -40.3503 304.272C-10.5854 286.937 25.067 285.301 60.0653 299.039C66.9341 301.655 73.8029 304.926 80.3446 308.851L131.37 338.289L314.866 443.938M241.598 486.786L131.37 423.005M241.598 486.786L58.4299 592.762M241.598 486.786L131.37 550.241M131.37 423.005L99.3157 404.688L58.1028 380.81L43.711 372.633C6.75019 351.045 -23.3418 368.708 -23.3418 411.556V562.016C-23.3418 604.865 7.07727 622.2 44.038 600.94L58.4299 592.762M131.37 423.005L241.925 486.459L273.653 468.142L314.866 444.265L131.37 338.616L80.3446 309.178C73.8029 305.253 66.9341 301.983 60.0653 299.366M58.4299 592.762V651.638C58.4299 659.488 59.084 667.011 60.0653 674.207C25.3941 687.945 -10.2583 686.309 -40.3503 668.973C-76.0027 648.367 -96.6091 609.444 -96.6091 562.016V411.556C-96.6091 364.456 -76.0027 325.533 -40.3503 304.599C-10.5854 287.264 25.067 285.628 60.0653 299.366M60.0653 299.366C65.6258 262.405 84.9238 232.64 114.689 215.305C150.341 194.698 194.498 196.334 235.384 219.884L365.564 295.114C406.45 318.664 430 355.952 430 397.165C430 431.509 413.646 463.236 384.535 486.459C378.647 491.039 372.433 495.291 365.564 499.216L314.866 528.653L131.37 634.302" stroke="#174479" stroke-width="1.31489" stroke-miterlimit="10"/>
<path d="M131.37 550.241V587.202V634.63V651.311C131.37 694.159 161.789 711.495 198.75 690.234L328.93 615.004C347.574 604.21 356.733 590.146 356.733 576.081C356.733 562.016 347.574 547.952 328.93 537.158L314.539 528.981L365.237 499.543C372.106 495.618 378.32 491.366 384.208 486.786C413.319 510.01 429.673 541.737 429.673 576.081C429.673 617.294 406.123 654.582 365.237 678.132L235.384 753.362C194.498 776.912 150.341 778.548 114.689 757.941C84.9239 740.606 65.6258 710.841 60.0654 673.88C59.0841 666.684 58.4299 659.161 58.4299 651.311V592.435V380.81L99.6428 404.688L131.697 423.005" stroke="#174479" stroke-width="1.31489" stroke-miterlimit="10"/>
</g>
</svg>
