<svg width="241" height="573" viewBox="0 0 241 573" fill="none" xmlns="http://www.w3.org/2000/svg">
<mask id="mask0_4:959" style="mask-type:alpha" maskUnits="userSpaceOnUse" x="0" y="0" width="241" height="573">
<rect width="241" height="573" fill="#184377"/>
</mask>
<g mask="url(#mask0_4:959)">
<path d="M129.812 532.872L166.172 688.619C172.913 717.494 146.15 742.503 117.731 734.067L-35.1971 687.651C-63.3248 679.147 -71.6999 643.273 -50.3131 622.902L66.2547 513.571C87.6415 493.2 123.071 503.997 129.812 532.872Z" fill="#FFD96B"/>
<path d="M169.445 401.669L285.721 292.405C307.468 272.258 342.605 283.123 349.278 311.706L385.639 467.454C392.379 496.329 365.617 521.338 337.197 512.902L184.561 466.418C156.142 457.982 147.766 422.108 169.445 401.669Z" fill="#0695BB"/>
<path d="M180.828 472.825L333.756 519.241C361.884 527.745 370.259 563.619 348.873 583.99L232.305 693.322C210.85 713.401 175.488 702.895 168.747 674.021L132.387 518.273C125.646 489.398 152.701 464.321 180.828 472.825Z" fill="#1EB179"/>
<path d="M-53.5385 472.794L25.9904 557.875L48.9283 582.353L78.799 614.132L89.0866 625.263C102.593 639.64 117.041 644.879 129.582 641.951C142.124 639.023 152.758 627.929 158.502 609.057L198.485 477.315C209.748 439.931 187.958 416.415 149.75 425.335L134.875 428.808L150.503 377.18C152.573 370.238 154.128 363.724 155.031 357.054C189.146 354.318 219.705 365.33 241.359 388.263C267.156 415.764 274.89 455.479 262.401 496.839L222.419 628.582C209.931 669.942 181.584 698.704 144.834 707.284C114.21 714.433 82.514 706.455 55.7459 685.331C50.437 681.035 45.3517 676.378 40.4219 671.07L3.61824 631.991L-128.787 490.361M55.7459 685.331C41.0979 716.124 16.2112 737.311 -14.4134 744.461C-51.1628 753.04 -89.3148 739.803 -118.826 708.248L-213.008 607.827C-242.519 576.272 -253.17 537.238 -242.217 501.157C-232.955 471.007 -210.431 447.602 -178.631 434.95C-172.418 432.577 -165.846 430.427 -158.846 428.793L-106.347 416.537L82.0667 372.551L55.7459 685.331ZM-178.922 435.018C-198.39 406.962 -204.353 374.83 -195.159 344.388C-184.207 308.307 -153.788 281.83 -111.497 271.957L22.6673 240.635C64.6667 230.83 103.664 241.102 129.752 268.535C151.407 291.468 160.287 322.919 155.323 356.986C154.419 363.656 152.933 370.462 150.794 377.112L135.167 428.74L79.1588 614.355L-178.922 435.018ZM25.9904 557.875L59.6264 446.375L69.2867 413.979L81.9986 372.259L86.2942 357.724C97.5581 320.34 75.7675 296.824 37.5598 305.744L-96.6049 337.065C-134.813 345.985 -143.938 376.719 -117.286 405.251L-106.999 416.382L25.9904 557.875ZM155.031 357.054C189.146 354.318 219.705 365.33 241.359 388.263C267.156 415.764 274.89 455.479 262.401 496.839L222.419 628.582C209.931 669.942 181.584 698.704 144.834 707.284C114.21 714.433 82.514 706.455 55.7459 685.331C50.437 681.035 45.3517 676.378 40.4219 671.07L3.61824 631.991L-128.787 490.361L155.031 357.054ZM-53.5385 472.794L25.9904 557.875L48.9283 582.353L78.799 614.132L89.0866 625.263C102.593 639.64 117.041 644.879 129.582 641.951C142.124 639.023 152.758 627.929 158.502 609.057L198.485 477.315C209.748 439.931 187.958 416.415 149.75 425.335L134.875 428.808L-53.5385 472.794ZM134.875 428.808L78.8671 614.423L48.9964 582.645L26.0585 558.166L59.6945 446.667L69.3548 414.271L82.0667 372.551L86.3623 358.015C97.6261 320.632 75.8356 297.116 37.6279 306.036L-96.5368 337.357C-134.745 346.277 -143.87 377.01 -117.218 405.542L-106.93 416.673L-159.43 428.929C-166.43 430.564 -173.002 432.713 -179.214 435.086C-198.681 407.03 -204.645 374.898 -195.451 344.456C-184.498 308.375 -154.08 281.898 -111.789 272.025L22.3756 240.703C64.375 230.898 103.373 241.17 129.461 268.604C151.115 291.536 159.995 322.987 155.031 357.054C154.128 363.724 152.641 370.53 150.503 377.18L134.875 428.808Z" stroke="#184377" stroke-width="1.20401" stroke-miterlimit="10"/>
</g>
</svg>
