<svg width="58" height="63" viewBox="0 0 58 63" fill="none" xmlns="http://www.w3.org/2000/svg">
<path d="M52.6691 15.946L34.551 5.487C34.4029 5.40038 34.2498 5.32267 34.0925 5.25427V5.22958C28.8031 2.17227 25.0969 5.30363 25.0969 10.0148V13.2837C25.0969 11.2172 25.7387 9.69389 26.8037 8.82642C26.9482 8.70914 27.1014 8.60303 27.2621 8.50904L27.2938 8.49141C27.4472 8.40559 27.6063 8.33019 27.7699 8.26572H27.8157C27.9928 8.2001 28.1742 8.14708 28.3588 8.10705C29.5013 7.87431 30.8695 8.13526 32.3435 8.94631L32.4916 9.04152L40.327 13.5164L49.6788 18.9152C53.7552 21.2708 54.6509 26.0736 49.3579 29.1203L50.8672 29.9948C51.5923 30.4112 52.2843 30.8828 52.9371 31.4054C53.6275 30.8587 54.2672 30.2508 54.8484 29.5893L54.8872 29.547C55.0106 29.4024 55.134 29.2543 55.2398 29.1062C55.2613 29.0753 55.2849 29.0459 55.3103 29.018C55.4196 28.877 55.5254 28.7359 55.6312 28.5914L55.7123 28.475C55.8111 28.3375 55.9063 28.1964 55.998 28.0554L56.0861 27.9143C56.1708 27.7803 56.2554 27.6428 56.3365 27.5017L56.3717 27.4418C56.4811 27.2514 56.5833 27.0574 56.6821 26.8599C56.7209 26.7788 56.7596 26.7013 56.7949 26.6202C56.8302 26.5391 56.9218 26.3486 56.9818 26.2146C57.0417 26.0806 57.077 25.9819 57.1229 25.862C57.1687 25.7421 57.204 25.661 57.2392 25.5552C57.2745 25.4494 57.338 25.2731 57.3838 25.1285C57.4085 25.0545 57.4296 24.9804 57.4543 24.9064C57.5037 24.7371 57.5531 24.5537 57.5954 24.3951C57.5954 24.3527 57.613 24.314 57.6236 24.2716C57.6624 24.1165 57.6941 23.9578 57.7223 23.8026C57.7223 23.7744 57.7223 23.7498 57.7223 23.7251C57.7223 20.5902 55.9133 17.822 52.6303 15.9249" fill="#008566"/>
<path d="M17.0533 43.0879V13.2836C17.0533 8.08227 19.3137 3.79428 23.2561 1.51629C23.9056 1.14288 24.5893 0.832325 25.2979 0.588867L25.2309 0.624132C22.5156 2.18981 21.0204 5.14134 21.0204 8.93564V40.7747L17.0533 43.0879Z" fill="#008566"/>
<path d="M3.96714 18.8058V39.7239C3.96838 39.8948 3.97897 40.0655 3.99887 40.2352H3.97771C3.97771 46.3463 8.54076 47.9931 12.6207 45.6375L15.4417 44.0048C13.6539 45.038 12.0142 45.2426 10.7306 44.7524C10.5558 44.6835 10.3861 44.6022 10.2228 44.5091H10.1911C10.0399 44.4177 9.89505 44.3164 9.75733 44.2058C9.74629 44.1956 9.73451 44.1862 9.72208 44.1776C9.57747 44.056 9.44192 43.924 9.31655 43.7827C8.54076 42.9117 8.08233 41.5964 8.05059 39.9037C8.05059 39.8438 8.05059 39.7874 8.05059 39.7274V19.8849C8.05059 15.1773 11.7603 12.0001 17.0462 15.0574V13.3154C17.0478 12.4784 17.1114 11.6428 17.2366 10.8152C16.4183 10.4898 15.572 10.2396 14.7083 10.0676H14.6554C14.465 10.0289 14.2781 9.99712 14.0877 9.96891L13.9783 9.95129L13.4494 9.8878H13.3048C13.1355 9.8878 12.9522 9.85959 12.8005 9.85254H12.6348C12.4726 9.85254 12.3139 9.85254 12.1517 9.85254H12.0812C11.8625 9.85254 11.6404 9.85255 11.4218 9.87371L11.1573 9.89486L10.713 9.93718C10.5896 9.93718 10.4661 9.97244 10.3603 9.99007H10.0007L9.55633 10.0818L9.33064 10.1311C9.15785 10.1734 8.97803 10.2158 8.81582 10.2651L8.69591 10.3004C8.54428 10.3462 8.38913 10.3991 8.2375 10.452L8.1705 10.4873C5.45524 12.053 3.96008 15.0045 3.96008 18.7988" fill="#007196"/>
<path d="M6.20276 11.4006C2.26035 13.6786 0 17.9666 0 23.1679V39.7416C0.00176784 40.5785 0.0654071 41.4142 0.190413 42.2417C0.316946 43.1119 0.522313 43.9688 0.803987 44.8018C0.803987 44.8195 0.803987 44.8406 0.803987 44.8582C0.867461 45.0381 0.93446 45.2109 1.00146 45.3942L1.04377 45.5C1.11077 45.6658 1.18131 45.8315 1.25183 45.9902C1.27299 46.036 1.29414 46.0783 1.31178 46.1207C1.38583 46.2758 1.45636 46.4275 1.53394 46.5791L1.61153 46.7237C1.68558 46.8647 1.76314 47.0093 1.84072 47.1468C1.85488 47.166 1.86783 47.186 1.87951 47.2068C1.98882 47.3972 2.10519 47.5841 2.23214 47.7675L2.38379 47.9896C2.46842 48.1095 2.55305 48.2329 2.64473 48.3422C2.73641 48.4516 2.79635 48.5397 2.87393 48.6349L3.07846 48.8888C3.1772 49.0052 3.27592 49.118 3.37819 49.2414L3.53688 49.4107C3.65677 49.5412 3.78019 49.6646 3.91066 49.788L4.00235 49.8762C4.11872 49.9855 4.23861 50.0913 4.35498 50.1971C4.37606 50.2121 4.39849 50.225 4.42198 50.2359C5.94124 51.1057 7.70532 51.449 9.43991 51.2127H9.49987C9.67972 51.188 9.85249 51.1633 10.0359 51.128H10.0782C10.2651 51.0928 10.452 51.0504 10.6424 51.0046L10.7623 50.9693C10.9245 50.9235 11.0867 50.8812 11.2489 50.8283L11.457 50.7578L11.859 50.6167L12.1481 50.4968L12.4725 50.3628L12.8252 50.1936C12.9133 50.1512 13.005 50.1124 13.0932 50.0666C13.2977 49.9608 13.5022 49.848 13.7068 49.714L41.2931 33.7856L37.2166 31.4442L21.9583 40.2599L12.6101 45.6552C9.48225 47.4642 6.06525 46.9106 4.64767 43.8039C4.16986 42.4996 3.93095 41.12 3.94241 39.731V18.8059C3.94241 15.0116 5.43404 12.0601 8.14929 10.4944L8.21629 10.4591C7.50835 10.7041 6.82482 11.0146 6.17457 11.3865" fill="#0094BB"/>
<path d="M45.285 36.0847L19.4689 50.9834C14.9658 53.5858 10.1241 53.7692 6.17821 51.4947C5.53147 51.1188 4.92219 50.6819 4.35864 50.19L4.42211 50.2288C7.13737 51.798 10.4415 51.6181 13.728 49.721L41.3002 33.7997L45.285 36.0847Z" fill="#007196"/>
<path d="M30.7846 59.5346L48.8993 49.0756C49.058 48.9839 49.1955 48.8887 49.3295 48.7935H49.3507C54.6401 45.7467 53.7868 40.9651 49.7033 38.6095L46.8822 36.9768C48.6701 38.01 49.668 39.3289 49.8902 40.683C49.9195 40.8684 49.9348 41.0559 49.936 41.2436V41.2648C49.9377 41.2753 49.9377 41.286 49.936 41.2965C49.936 41.4737 49.9218 41.6506 49.8937 41.8255C49.8951 41.8407 49.8951 41.8561 49.8937 41.8713C49.8629 42.0581 49.8169 42.2421 49.7562 42.4214C49.4035 43.5252 48.4797 44.5795 47.0374 45.4505L46.8822 45.5316L39.0538 50.0524L29.6844 55.4793C25.6045 57.8349 20.9991 56.2093 21.0062 50.1017L19.4934 50.9727C18.769 51.39 18.0146 51.753 17.2366 52.0588C17.3631 52.929 17.5685 53.7859 17.8501 54.6189C17.8522 54.6377 17.8522 54.6566 17.8501 54.6753C17.9136 54.8552 17.9806 55.028 18.0511 55.2113C18.0511 55.2466 18.0794 55.2819 18.0935 55.3171C18.1605 55.4829 18.2275 55.6451 18.3015 55.8073C18.3015 55.8531 18.3403 55.8954 18.3615 55.9378C18.432 56.0929 18.5025 56.2446 18.5801 56.3962L18.6577 56.5408C18.7352 56.6818 18.8093 56.8264 18.8904 56.9639L18.9257 57.0239C19.035 57.2143 19.1549 57.4012 19.2783 57.5845L19.4335 57.8067C19.5181 57.9266 19.6027 58.05 19.6909 58.1593C19.779 58.2687 19.8425 58.3568 19.9201 58.452C19.9977 58.5472 20.0576 58.6248 20.1281 58.7059C20.1987 58.787 20.3221 58.9351 20.4243 59.0585L20.583 59.2278C20.7065 59.3548 20.8299 59.4817 20.9568 59.6051C20.9856 59.6363 21.0162 59.6657 21.0485 59.6933C21.1649 59.8026 21.2848 59.9084 21.4011 60.0142L21.4681 60.0565C24.1834 61.6222 27.484 61.4423 30.7705 59.5452" fill="#F79421"/>
<path d="M23.2418 61.3083C27.1877 63.5828 32.0294 63.3994 36.536 60.797L50.8845 52.5173C51.6078 52.0996 52.2985 51.6281 52.9509 51.1067C53.6413 50.56 54.281 49.9522 54.8622 49.2907L54.901 49.2484C55.0279 49.1038 55.1478 48.9557 55.2536 48.8076L55.3242 48.7194C55.4335 48.5784 55.5428 48.4373 55.645 48.2927L55.7261 48.1764C55.8249 48.0389 55.9201 47.8978 56.0118 47.7568C56.0435 47.7109 56.0717 47.6651 56.0999 47.6157C56.1846 47.4817 56.2727 47.3442 56.3503 47.2031L56.3856 47.1432C56.4949 46.9527 56.5971 46.7588 56.6959 46.5613C56.7382 46.4837 56.7735 46.4026 56.8122 46.3215C56.8757 46.1875 56.9392 46.05 56.9956 45.916C57.052 45.782 57.0908 45.6868 57.1367 45.5634C57.1825 45.44 57.2178 45.3624 57.2566 45.2566C57.2954 45.1508 57.3553 44.9745 57.4011 44.8299C57.4223 44.7559 57.447 44.6818 57.4681 44.6078C57.521 44.4385 57.5669 44.2551 57.6092 44.0964C57.6092 44.0541 57.6304 44.0153 57.6374 43.973C57.6762 43.8179 57.7079 43.6592 57.7361 43.504C57.7361 43.4758 57.7361 43.4511 57.7361 43.4264V43.4018C57.7279 41.6517 57.1443 39.9529 56.0752 38.5672C56.0612 38.5516 56.0483 38.5351 56.0365 38.5178C55.9271 38.3768 55.8143 38.2322 55.6838 38.0947L55.6556 38.0629C55.5287 37.9183 55.4017 37.7773 55.2642 37.6398C55.2354 37.6086 55.2048 37.5792 55.1725 37.5516C55.0561 37.4317 54.9362 37.3154 54.8199 37.199C54.7635 37.1531 54.707 37.1073 54.6542 37.0579C54.5448 36.9662 54.439 36.871 54.3262 36.7794C54.2134 36.6877 54.1605 36.6524 54.0794 36.5889L53.8008 36.3738L53.4834 36.1587C53.4023 36.1023 53.3247 36.0459 53.2366 35.9895C53.0426 35.866 52.8451 35.7426 52.6406 35.6368L25.0543 19.7085V24.4126L40.3091 33.2284L49.6609 38.6271C52.7887 40.4326 54.0194 43.6662 52.0376 46.4485C51.1461 47.5096 50.0711 48.4018 48.864 49.0826L30.7846 59.5346C27.4981 61.4318 24.1974 61.6116 21.4822 60.0459L21.4187 60.0036C21.9832 60.4959 22.5937 60.9328 23.2418 61.3083Z" fill="#FBB261"/>
<path d="M25.0824 15.1173L50.9055 30.023C55.4122 32.6254 57.9934 36.723 57.9934 41.2825C57.9913 42.0316 57.9193 42.7789 57.7783 43.5147V43.4371C57.7783 40.3022 55.9693 37.534 52.6863 35.6369L25.1141 19.7191L25.0824 15.1173Z" fill="#F79421"/>
<path d="M32.5162 53.8362C30.7283 54.8694 29.0851 55.0739 27.8015 54.5837C27.6285 54.5146 27.4601 54.4345 27.2972 54.344L27.269 54.3263C27.1168 54.2366 26.9718 54.1353 26.8353 54.0231L26.7965 53.9949C26.6528 53.8723 26.5173 53.7404 26.391 53.5999C25.5905 52.6972 25.1215 51.3254 25.118 49.5552V47.7216L21.031 50.0807C21.031 56.1882 25.6152 57.8139 29.7092 55.4583L32.5162 53.8362Z" fill="#FBB261"/>
<path d="M8.03629 23.1537C8.03629 21.0873 8.68162 19.564 9.74657 18.6965C9.89075 18.5761 10.0453 18.4687 10.2085 18.3756H10.2402C10.3929 18.2884 10.5521 18.2129 10.7163 18.1499L10.7621 18.1323C10.9393 18.0678 11.1207 18.016 11.3052 17.9771C12.49 17.7338 13.9111 18.0159 15.4451 18.8975L17.0143 19.8038V15.0573C11.7248 12 8.01514 15.1737 8.01514 19.8849L8.03629 23.1537Z" fill="#0094BB"/>
<path d="M46.8573 17.2965C48.6451 18.3262 49.6431 19.6486 49.8617 21.0027C49.8911 21.1869 49.9064 21.3732 49.9075 21.5598V21.5774C49.9075 21.5774 49.9075 21.6021 49.9075 21.6127C49.9075 21.7899 49.8933 21.9667 49.8652 22.1417C49.8633 22.1569 49.8633 22.1723 49.8652 22.1875C49.8311 22.3736 49.7851 22.5573 49.7277 22.7376C49.3469 23.8801 48.3912 24.9733 46.8608 25.8584L45.2881 26.7646L49.3751 29.1237C54.6645 26.077 53.7724 21.2742 49.696 18.9186L46.8573 17.2965Z" fill="#1CB079"/>
<path d="M57.9582 21.5881C57.9582 17.0356 55.377 12.9345 50.8739 10.3321L36.5253 2.04878C35.8001 1.63081 35.0445 1.26776 34.265 0.96268C34.2671 0.957004 34.2671 0.95073 34.265 0.945053C33.4477 0.620169 32.6026 0.369951 31.7402 0.197472H31.6837C31.4968 0.158683 31.3064 0.126947 31.116 0.0987362H31.0067L30.4777 0.0352652H30.3331C30.1639 0.0352652 29.9981 0.00705262 29.8289 0H29.6631C29.5009 0 29.3423 0 29.18 0H29.1095C28.8909 0 28.6723 0.00705175 28.4536 0.021157L28.1856 0.042314C28.0375 0.042314 27.8894 0.0670018 27.7413 0.0846333L27.371 0.137526L27.0466 0.186894L26.6023 0.278581L26.3766 0.327949C26.2038 0.370265 26.024 0.412577 25.8618 0.461945L25.7419 0.497211C25.5903 0.543053 25.4351 0.595945 25.2835 0.648839L25.2165 0.684105C23.705 1.56584 22.5254 2.92015 21.8594 4.53836C21.854 4.55886 21.8469 4.57891 21.8383 4.59831C21.7677 4.76404 21.7043 4.92978 21.6408 5.10609V5.14489C21.5773 5.32473 21.5209 5.49752 21.468 5.69499C21.4554 5.73557 21.4448 5.77676 21.4363 5.81841C21.394 5.98062 21.3516 6.1393 21.3129 6.30856C21.3129 6.37909 21.2882 6.44962 21.274 6.52367C21.2458 6.6612 21.2176 6.79872 21.1965 6.9433C21.1753 7.08787 21.1683 7.15135 21.1542 7.25361C21.1401 7.35588 21.1189 7.48282 21.1083 7.60624C21.0977 7.72966 21.1083 7.86366 21.0801 7.99061C21.0519 8.11756 21.0625 8.18809 21.0554 8.28683C21.0554 8.51956 21.0554 8.7523 21.0554 8.99209V40.8452L25.1248 38.4861V10.0147C25.1248 6.40378 27.3111 3.72378 30.714 4.04468C32.083 4.28892 33.3969 4.77746 34.5929 5.48694L52.6688 15.9424C55.9518 17.8396 57.7608 20.6113 57.7608 23.7462C57.7608 23.7708 57.7608 23.7955 57.7608 23.8202C57.9039 23.0848 57.9759 22.3373 57.9759 21.5881" fill="#1CB079"/>
</svg>
