<svg width="17" height="18" viewBox="0 0 17 18" fill="none" xmlns="http://www.w3.org/2000/svg">
<path d="M0.215576 5.5414H3.85888V17.037H0.215576V5.5414ZM2.06161 0C0.814664 0 0 0.858337 0 1.98493C0 3.08836 0.790824 3.97165 2.01393 3.97165H2.03717C3.30796 3.97165 4.09935 3.08831 4.09935 1.98493C4.07551 0.858337 3.308 0 2.06161 0ZM12.8042 5.27135C10.8703 5.27135 10.0039 6.38666 9.52057 7.16882V5.5414H5.87617C5.92442 6.61982 5.87617 17.037 5.87617 17.037H9.52057V10.6171C9.52057 10.2732 9.54441 9.93065 9.6403 9.68433C9.90416 8.99791 10.5038 8.2871 11.5096 8.2871C12.8292 8.2871 13.3562 9.34176 13.3562 10.8864V17.037H17V10.4452C17 6.91427 15.2028 5.27135 12.8042 5.27135Z" fill="white"/>
</svg>
