<svg width="50" height="50" viewBox="0 0 50 50" fill="none" xmlns="http://www.w3.org/2000/svg">
<rect width="50" height="50" fill="#002249"/>
<path d="M17.2156 22.5293H20.8589V34H17.2156V22.5293ZM19.0616 17C17.8147 17 17 17.8565 17 18.9806C17 20.0816 17.7908 20.963 19.0139 20.963H19.0372C20.308 20.963 21.0993 20.0816 21.0993 18.9806C21.0755 17.8565 20.308 17 19.0616 17ZM29.8042 22.2599C27.8703 22.2599 27.0039 23.3728 26.5206 24.1532V22.5293H22.8762C22.9244 23.6054 22.8762 34 22.8762 34H26.5206V27.594C26.5206 27.2509 26.5444 26.9091 26.6403 26.6633C26.9042 25.9784 27.5038 25.2691 28.5096 25.2691C29.8292 25.2691 30.3562 26.3215 30.3562 27.8628V34H34V27.4225C34 23.8992 32.2028 22.2599 29.8042 22.2599Z" fill="white"/>
</svg>
