<svg width="220" height="50" viewBox="0 0 220 50" fill="none" xmlns="http://www.w3.org/2000/svg">
<path d="M66.3466 9.02759V22.9136H63.6676V17.2208H57.958V22.9136H55.2791V9.02759H57.958V14.7595H63.6676V9.02759H66.3466Z" fill="#184377"/>
<path d="M70.2952 16.9279H75.6141C75.4579 15.4823 74.2468 14.7568 73.0133 14.7568C72.3765 14.7383 71.7539 14.9463 71.2561 15.3439C70.7584 15.7415 70.4179 16.3028 70.2952 16.9279V16.9279ZM77.9415 18.845H70.3343C70.7055 20.2403 71.9194 20.9547 73.4431 20.9547C74.4007 20.9879 75.3359 20.6602 76.0634 20.0366L77.2578 21.3091C76.4206 22.364 74.95 23.1091 73.15 23.1091C70.3594 23.1091 67.8479 21.2114 67.8479 17.8264C67.8479 14.4414 70.3901 12.5466 72.991 12.5466C75.5918 12.5466 78.5052 14.3661 77.9387 18.845" fill="#184377"/>
<path d="M87.2679 17.8264C87.2679 15.9121 85.8977 14.8935 84.4326 14.8935C82.9675 14.8935 81.5862 15.9316 81.5862 17.8264C81.5862 19.7213 82.9564 20.7622 84.4242 20.7622C85.8921 20.7622 87.2595 19.7436 87.2595 17.8264H87.2679ZM79.0049 17.8264C79.0049 14.3075 81.5164 12.5466 83.894 12.5466C85.7135 12.5466 86.8883 13.5457 87.1423 14.1122H87.1981V12.742H89.8213V22.9109H87.1981V21.5435H87.1423C86.8883 22.1017 85.7135 23.1063 83.894 23.1063C81.5276 23.1063 79.0049 21.3482 79.0049 17.8264Z" fill="#184377"/>
<path d="M94.4422 9.02759H91.8218V22.9108H94.4422V9.02759Z" fill="#184377"/>
<path d="M102.144 20.5443V22.5592C101.754 22.9108 101.011 23.028 100.364 23.028C98.645 23.028 97.3921 22.1908 97.3921 20.0951V14.8348H95.9465V12.7446H97.3921V10.1382H100.032V12.739H102.125V14.8292H100.032V19.6597C100.032 20.1871 100.311 20.695 101.187 20.695C101.512 20.6901 101.835 20.6375 102.144 20.5388" fill="#184377"/>
<path d="M113.309 16.9277V22.9108H110.689V17.3575C110.689 15.8729 109.888 14.8934 108.518 14.8934C107.148 14.8934 106.347 15.8729 106.347 17.3575V22.9108H103.727V9.02197H106.347V14.126C106.905 13.2274 107.932 12.5437 109.456 12.5437C111.549 12.5437 113.309 13.833 113.309 16.9222" fill="#184377"/>
<path d="M128.209 11.4917H124.863V22.9108H122.184V11.4917H118.841V9.02759H128.209V11.4917Z" fill="#184377"/>
<path d="M136.184 12.6246V15.1361C135.965 15.0973 135.743 15.0777 135.52 15.0775C133.544 15.0775 132.311 16.4477 132.311 18.4821V22.9191H129.69V12.7446H132.311V15.3845C132.662 13.819 133.661 12.5493 135.498 12.5493C135.729 12.5452 135.959 12.5705 136.184 12.6246" fill="#184377"/>
<path d="M145.139 17.8264C145.139 15.9121 143.769 14.8935 142.304 14.8935C140.839 14.8935 139.466 15.9316 139.466 17.8264C139.466 19.7213 140.836 20.7622 142.304 20.7622C143.772 20.7622 145.139 19.7436 145.139 17.8264ZM136.887 17.8264C136.887 14.3075 139.399 12.5466 141.774 12.5466C143.593 12.5466 144.768 13.5457 145.022 14.1122H145.081V12.742H147.701V22.9109H145.081V21.5435H145.022C144.768 22.1017 143.593 23.1063 141.774 23.1063C139.407 23.1063 136.887 21.3482 136.887 17.8264Z" fill="#184377"/>
<path d="M159.274 16.9277V22.9107H156.653V17.3574C156.653 15.8728 155.852 14.8934 154.482 14.8934C153.112 14.8934 152.314 15.8728 152.314 17.3574V22.9107H149.691V12.7446H152.314V14.1399C152.872 13.2413 153.896 12.5576 155.423 12.5576C157.516 12.5576 159.274 13.8469 159.274 16.9361" fill="#184377"/>
<path d="M160.68 20.2514L162.773 19.6933C162.968 20.3575 163.457 21.0439 164.447 21.0439C165.114 21.0439 165.759 20.7119 165.759 19.9863C165.759 19.498 165.446 19.1491 164.643 18.8533L163.39 18.3845C161.715 17.7761 161.004 16.7101 161.004 15.4711C161.004 13.6516 162.605 12.5549 164.523 12.5549C166.362 12.5549 167.712 13.593 168.044 15.1558L165.991 15.686C165.711 14.8488 165.19 14.6088 164.643 14.6088C163.956 14.6088 163.546 14.9995 163.546 15.4906C163.546 15.9204 163.8 16.2915 164.604 16.565L165.737 16.9948C166.987 17.4441 168.357 18.1864 168.357 19.9863C168.357 22.0207 166.616 23.1174 164.484 23.1174C162.472 23.1174 160.984 22.1379 160.672 20.2598" fill="#184377"/>
<path d="M172.47 9.02759H169.85V22.9108H172.47V9.02759Z" fill="#184377"/>
<path d="M182.226 17.8264C182.226 15.9121 180.859 14.8935 179.391 14.8935C177.923 14.8935 176.556 15.9316 176.556 17.8264C176.556 19.7213 177.923 20.7622 179.391 20.7622C180.859 20.7622 182.226 19.7436 182.226 17.8264ZM173.974 17.8264C173.974 14.3075 176.486 12.5466 178.864 12.5466C180.683 12.5466 181.855 13.5457 182.109 14.1122H182.168V12.742H184.788V22.9109H182.168V21.5435H182.109C181.855 22.1017 180.683 23.1063 178.864 23.1063C176.497 23.1063 173.974 21.3482 173.974 17.8264Z" fill="#184377"/>
<path d="M192.49 20.5443V22.5592C192.1 22.9108 191.357 23.028 190.71 23.028C188.991 23.028 187.738 22.1908 187.738 20.0951V14.8348H186.292V12.7446H187.738V10.1382H190.378V12.739H192.471V14.8292H190.378V19.6597C190.378 20.1871 190.673 20.695 191.533 20.695C191.858 20.6901 192.181 20.6375 192.49 20.5388" fill="#184377"/>
<path d="M194.073 12.7419H196.696V22.9108H194.073V12.7419ZM194.073 9.02759H196.696V11.3354H194.073V9.02759Z" fill="#184377"/>
<path d="M206.326 17.8264C206.326 16.0098 205.034 14.9131 203.569 14.9131C202.104 14.9131 200.778 16.0098 200.778 17.8264C200.778 19.6431 202.09 20.7426 203.569 20.7426C205.048 20.7426 206.326 19.6459 206.326 17.8264ZM198.208 17.8264C198.208 14.3856 200.91 12.5466 203.569 12.5466C206.228 12.5466 208.924 14.3856 208.924 17.8264C208.924 21.2673 206.206 23.1063 203.569 23.1063C200.932 23.1063 198.208 21.2701 198.208 17.8264Z" fill="#184377"/>
<path d="M220 16.9277V22.9107H217.38V17.3574C217.38 15.8728 216.579 14.8934 215.208 14.8934C213.838 14.8934 213.04 15.8728 213.04 17.3574V22.9107H210.417V12.7446H213.04V14.1399C213.598 13.2413 214.622 12.5576 216.149 12.5576C218.239 12.5576 220 13.8469 220 16.9361" fill="#184377"/>
<path d="M64.9987 37.1037L62.0518 33.4676H64.0053L66.1764 36.1466C67.1463 35.1092 67.6695 33.732 67.6331 32.3123C67.6331 28.9635 65.1215 26.798 62.3142 26.798C59.5068 26.798 56.9757 28.9496 56.9757 32.3123C56.9757 35.6749 59.4873 37.8293 62.3142 37.8293C63.2619 37.8296 64.1929 37.5793 65.0127 37.1037H64.9987ZM67.2619 37.4581L68.7074 39.2553H66.7735L66.0675 38.3958C64.9341 39.0891 63.6289 39.4507 62.3002 39.4395C58.5245 39.4395 55.24 36.5651 55.24 32.3011C55.24 28.0371 58.5245 25.1655 62.3002 25.1655C66.0759 25.1655 69.3381 28.0399 69.3381 32.3011C69.3557 33.2556 69.1796 34.2037 68.8203 35.0882C68.461 35.9727 67.9261 36.7751 67.2479 37.447" fill="#184377"/>
<path d="M80.2689 29.0864V39.2554H78.6252V37.595C78.095 38.5717 76.9816 39.4507 75.2235 39.4507C73.0915 39.4507 71.2524 38.1224 71.2524 35.0695V29.0864H72.8961V34.8351C72.8961 36.889 74.1072 37.9466 75.7314 37.9466C77.3555 37.9466 78.6252 36.889 78.6252 34.8351V29.0864H80.2689Z" fill="#184377"/>
<path d="M83.6483 33.5262H90.5718C90.4546 31.4333 88.8695 30.3198 87.1672 30.3198C85.465 30.3198 83.9022 31.3942 83.6483 33.5262ZM92.0201 34.7764H83.6483C83.9022 36.9084 85.5264 38.0442 87.4826 38.0442C88.0461 38.06 88.6067 37.9585 89.1288 37.7461C89.651 37.5338 90.1234 37.2153 90.516 36.8108L91.3392 37.648C90.8427 38.2285 90.2227 38.6907 89.5245 39.0007C88.8263 39.3107 88.0676 39.4606 87.304 39.4395C84.5664 39.4395 82.0828 37.5419 82.0828 34.1597C82.0828 30.7775 84.5943 28.8799 87.1505 28.8799C89.7067 28.8799 92.4275 30.7384 92.0173 34.7653" fill="#184377"/>
<path d="M94.9808 33.5262H101.904C101.787 31.4333 100.202 30.3198 98.5025 30.3198C96.803 30.3198 95.2375 31.3942 94.9808 33.5262V33.5262ZM103.353 34.7764H94.9808C95.2375 36.9084 96.8616 38.0442 98.815 38.0442C99.378 38.0592 99.938 37.9574 100.46 37.7451C100.981 37.5328 101.453 37.2147 101.846 36.8108L102.666 37.648C102.169 38.2296 101.548 38.6924 100.849 39.0025C100.15 39.3125 99.3899 39.4619 98.6253 39.4395C95.8877 39.4395 93.4041 37.5419 93.4041 34.1597C93.4041 30.7775 95.9156 28.8799 98.469 28.8799C101.022 28.8799 103.749 30.7384 103.339 34.7653" fill="#184377"/>
<path d="M114.236 33.2724V39.2555H112.595V33.5068C112.595 31.453 111.381 30.3981 109.76 30.3981C108.139 30.3981 106.863 31.453 106.863 33.5068V39.2555H105.222V29.0865H106.863V30.7609C107.394 29.7814 108.507 28.9023 110.268 28.9023C112.4 28.9023 114.236 30.2335 114.236 33.2836" fill="#184377"/>
<path d="M115.947 36.6936L117.314 36.3225C117.416 36.8294 117.694 37.2841 118.098 37.6063C118.502 37.9284 119.007 38.0974 119.524 38.0834C120.484 38.0834 121.441 37.6117 121.441 36.4983C121.441 35.6611 120.855 35.2286 119.683 34.7402L118.762 34.3858C117.088 33.7021 116.377 32.7114 116.377 31.5506C116.377 29.946 117.772 28.8911 119.524 28.8911C121.148 28.8911 122.362 29.7897 122.711 31.1599L121.402 31.5506C121.288 31.1611 121.047 30.821 120.717 30.584C120.388 30.3469 119.989 30.2265 119.583 30.2418C118.704 30.2418 118.001 30.7106 118.001 31.5701C118.001 32.2147 118.411 32.7254 119.466 33.1552L120.286 33.4872C121.891 34.1123 123.077 34.8156 123.077 36.4983C123.077 38.5131 121.374 39.4508 119.535 39.4508C117.638 39.4508 116.27 38.435 115.958 36.6936" fill="#184377"/>
<path d="M126.526 25.3721H124.882V39.2553H126.526V25.3721Z" fill="#184377"/>
<path d="M137.259 34.1709C137.259 31.6594 135.442 30.398 133.603 30.398C131.764 30.398 129.975 31.6482 129.975 34.1709C129.975 36.6936 131.792 37.9466 133.603 37.9466C135.414 37.9466 137.259 36.6741 137.259 34.1709ZM128.329 34.1709C128.329 30.691 130.84 28.8911 133.315 28.8911C135.21 28.8911 136.639 29.9292 137.127 31.0036H137.186V29.0865H138.83V39.2554H137.186V37.3383H137.127C136.639 38.4154 135.21 39.4508 133.315 39.4508C130.851 39.4508 128.329 37.6536 128.329 34.1709" fill="#184377"/>
<path d="M150.162 33.2724V39.2555H148.521V33.5068C148.521 31.453 147.308 30.3981 145.686 30.3981C144.065 30.3981 142.79 31.453 142.79 33.5068V39.2555H141.149V29.0865H142.79V30.7609C143.32 29.7814 144.433 28.9023 146.194 28.9023C148.326 28.9023 150.162 30.2335 150.162 33.2836" fill="#184377"/>
<path d="M160.898 33.7988C160.898 31.2872 159.078 30.0259 157.239 30.0259C155.442 30.0259 153.612 31.2761 153.612 33.7988C153.612 36.3215 155.431 37.5745 157.239 37.5745C159.078 37.5745 160.898 36.3019 160.898 33.7988ZM162.48 25V38.8833H160.839V36.9661H160.778C160.289 38.0433 158.863 39.0786 156.966 39.0786C154.502 39.0786 151.979 37.2814 151.979 33.7988C151.979 30.3161 154.491 28.519 156.966 28.519C158.863 28.519 160.289 29.5543 160.778 30.6314H160.839V25H162.48Z" fill="#184377"/>
<path d="M41.6804 12.6192L27.3423 4.34223C27.2252 4.27368 27.104 4.21218 26.9795 4.15805V4.13851C22.7936 1.71906 19.8607 4.19712 19.8607 7.92536V10.5123C19.8607 8.87696 20.3686 7.67142 21.2114 6.98493C21.3257 6.89212 21.447 6.80815 21.5742 6.73377V6.73377L21.5993 6.71982C21.7207 6.6519 21.8466 6.59223 21.976 6.54122H22.0123C22.1524 6.48928 22.296 6.44733 22.442 6.41565C23.3462 6.23147 24.4289 6.43797 25.5954 7.07981L25.7126 7.15516L31.9133 10.6964L39.314 14.9688C42.54 16.833 43.2488 20.6338 39.0601 23.0449L40.2545 23.7369C40.8283 24.0665 41.3759 24.4396 41.8925 24.8532C42.4389 24.4205 42.9451 23.9395 43.405 23.416L43.4357 23.3825C43.5334 23.2681 43.6311 23.1509 43.7148 23.0337C43.7318 23.0092 43.7505 22.9859 43.7706 22.9639C43.8571 22.8523 43.9408 22.7407 44.0246 22.6263L44.0887 22.5342C44.1669 22.4253 44.2422 22.3137 44.3148 22.2021L44.3845 22.0905C44.4515 21.9844 44.5185 21.8756 44.5827 21.764L44.6106 21.7165C44.6971 21.5658 44.778 21.4123 44.8562 21.2561C44.8869 21.1919 44.9175 21.1305 44.9455 21.0663C44.9734 21.0021 45.0459 20.8514 45.0933 20.7454C45.1408 20.6394 45.1687 20.5612 45.205 20.4663C45.2413 20.3715 45.2692 20.3073 45.2971 20.2236C45.325 20.1398 45.3752 20.0003 45.4115 19.8859C45.431 19.8273 45.4478 19.7687 45.4673 19.7101C45.5064 19.5761 45.5454 19.431 45.5789 19.3054C45.5789 19.272 45.5929 19.2413 45.6012 19.2078C45.6319 19.085 45.6571 18.9594 45.6794 18.8366C45.6794 18.8143 45.6794 18.7948 45.6794 18.7752C45.6794 16.2944 44.2478 14.1038 41.6498 12.6024" fill="#008566"/>
<path d="M13.4954 34.0984V10.5122C13.4954 6.3961 15.2841 3.00272 18.404 1.19999C18.918 0.904488 19.4591 0.658729 20.0198 0.466064L19.9668 0.493972C17.818 1.733 16.6348 4.06874 16.6348 7.07143V32.2678L13.4954 34.0984Z" fill="#008566"/>
<path d="M3.1395 14.8822V31.4361C3.14048 31.5713 3.14885 31.7064 3.1646 31.8407H3.14786C3.14786 36.6768 6.7589 37.98 9.98763 36.1159L12.2201 34.8239C10.8053 35.6415 9.50765 35.8034 8.49187 35.4155C8.35351 35.361 8.21921 35.2966 8.09003 35.2229V35.2229H8.0649C7.94531 35.1506 7.83065 35.0704 7.72166 34.9829C7.71292 34.9748 7.7036 34.9674 7.69376 34.9606C7.57932 34.8644 7.47206 34.7599 7.37284 34.6481C6.75891 33.9588 6.39612 32.9179 6.371 31.5784C6.371 31.531 6.371 31.4863 6.371 31.4389V15.7361C6.371 12.0107 9.30672 9.49636 13.4898 11.9158V10.5372C13.4911 9.87492 13.5415 9.21359 13.6405 8.55871C12.9929 8.30122 12.3232 8.1032 11.6397 7.96711H11.5978C11.4471 7.93641 11.2992 7.91129 11.1485 7.88897L11.062 7.87502L10.6434 7.82478H10.529C10.3951 7.82478 10.25 7.80246 10.13 7.79688H9.99879C9.87042 7.79688 9.74485 7.79688 9.61648 7.79688H9.56068C9.38766 7.79688 9.21186 7.79688 9.03884 7.81363L8.82954 7.83037L8.47792 7.86386C8.38025 7.86386 8.28258 7.89176 8.19886 7.90571H7.91422L7.5626 7.97827L7.384 8.01734C7.24726 8.05082 7.10495 8.08431 6.97658 8.12338L6.88169 8.15129C6.76169 8.18756 6.63891 8.22942 6.51891 8.27128L6.46589 8.29919C4.31713 9.53822 3.13391 11.874 3.13391 14.8766" fill="#007196"/>
<path d="M4.90866 9.02195C1.78877 10.8247 0 14.2181 0 18.3342V31.45C0.00139901 32.1124 0.051761 32.7737 0.150686 33.4286V33.4286C0.25082 34.1172 0.413341 34.7953 0.636249 35.4545C0.636249 35.4685 0.636249 35.4852 0.636249 35.4992C0.68648 35.6415 0.7395 35.7783 0.792522 35.9234L0.826008 36.0071C0.879029 36.1382 0.934849 36.2694 0.990661 36.395C1.0074 36.4313 1.02414 36.4647 1.0381 36.4982C1.0967 36.621 1.15251 36.741 1.21391 36.861L1.27531 36.9754C1.33391 37.0871 1.39529 37.2015 1.45669 37.3103C1.46789 37.3255 1.47814 37.3413 1.48738 37.3577C1.57389 37.5084 1.66598 37.6563 1.76644 37.8014L1.88645 37.9773C1.95343 38.0721 2.0204 38.1698 2.09295 38.2563C2.16551 38.3428 2.21294 38.4126 2.27433 38.4879L2.43619 38.6889C2.51433 38.7809 2.59246 38.8702 2.67339 38.9679L2.79897 39.1019C2.89385 39.2051 2.99152 39.3028 3.09477 39.4005L3.16733 39.4702C3.25942 39.5567 3.3543 39.6404 3.44639 39.7242C3.46307 39.736 3.48082 39.7463 3.49941 39.7549C3.49941 39.7549 3.49941 39.7549 3.49941 39.7549C4.7017 40.4432 6.09774 40.7149 7.47043 40.5279H7.51789C7.66021 40.5083 7.79693 40.4888 7.94205 40.4609H7.97553C8.12343 40.433 8.27135 40.3995 8.42204 40.3632L8.51691 40.3353C8.64528 40.299 8.77365 40.2655 8.90201 40.2237L9.06667 40.1679L9.3848 40.0562L9.61363 39.9614L9.87036 39.8553L10.1494 39.7214C10.2192 39.6879 10.2917 39.6572 10.3615 39.6209C10.5234 39.5372 10.6852 39.4479 10.8471 39.3419L32.678 26.7367L29.452 24.8837L17.3771 31.8602L9.9792 36.1299C7.50394 37.5615 4.79984 37.1233 3.67801 34.6648C3.29989 33.6327 3.11083 32.5408 3.11989 31.4417V14.8822C3.11989 11.8795 4.30032 9.54379 6.44908 8.30476L6.5021 8.27686C5.94186 8.47071 5.40094 8.71642 4.88635 9.01079" fill="#0094BB"/>
<path d="M35.8368 28.5564L15.4068 40.3467C11.8432 42.4061 8.01173 42.5512 4.88904 40.7513C4.37724 40.4538 3.89507 40.1081 3.4491 39.7188L3.49933 39.7495C5.64809 40.9913 8.26289 40.849 10.8637 39.3476L32.6835 26.748L35.8368 28.5564Z" fill="#007196"/>
<path d="M24.3619 47.1137L38.6972 38.8368C38.8228 38.7642 38.9316 38.6889 39.0377 38.6135H39.0544C43.2403 36.2024 42.565 32.4184 39.3335 30.5543L37.101 29.2622C38.5158 30.0799 39.3056 31.1235 39.4814 32.1951C39.5045 32.3419 39.5167 32.4902 39.5176 32.6388V32.6556C39.519 32.6639 39.519 32.6724 39.5176 32.6807C39.5176 32.8209 39.5064 32.9609 39.4842 33.0993C39.4853 33.1114 39.4853 33.1235 39.4842 33.1356C39.4598 33.2834 39.4234 33.429 39.3753 33.5709C39.0963 34.4444 38.3651 35.2787 37.2238 35.968L37.101 36.0322L30.9058 39.6098L23.4912 43.9045C20.2625 45.7686 16.618 44.4822 16.6235 39.6488L15.4264 40.3381C14.8531 40.6683 14.2561 40.9556 13.6404 41.1976C13.7405 41.8863 13.903 42.5644 14.1259 43.2236C14.1275 43.2384 14.1275 43.2534 14.1259 43.2682C14.1762 43.4106 14.2292 43.5473 14.285 43.6924C14.285 43.7203 14.3073 43.7482 14.3185 43.7761C14.3715 43.9073 14.4245 44.0357 14.4831 44.164C14.4831 44.2003 14.5138 44.2338 14.5306 44.2673C14.5864 44.3901 14.6422 44.5101 14.7036 44.6301L14.765 44.7445C14.8264 44.8561 14.885 44.9705 14.9492 45.0793L14.9771 45.1268C15.0636 45.2775 15.1585 45.4254 15.2561 45.5705L15.3789 45.7463C15.4459 45.8412 15.5129 45.9389 15.5826 46.0254C15.6524 46.1119 15.7026 46.1816 15.764 46.257C15.8254 46.3323 15.8728 46.3937 15.9287 46.4579C15.9845 46.5221 16.0822 46.6393 16.1631 46.737L16.2887 46.8709C16.3863 46.9714 16.484 47.0718 16.5845 47.1695C16.6073 47.1942 16.6315 47.2175 16.657 47.2393C16.7491 47.3258 16.844 47.4095 16.9361 47.4932L16.9891 47.5267C19.1379 48.7657 21.7499 48.6234 24.3507 47.1221" fill="#F79421"/>
<path d="M18.3928 48.5174C21.5155 50.3174 25.347 50.1722 28.9134 48.1128L40.2684 41.5605C40.8407 41.2299 41.3873 40.8568 41.9036 40.4442V40.4442C42.45 40.0116 42.9562 39.5306 43.4161 39.0071L43.4469 38.9736C43.5473 38.8591 43.6422 38.7419 43.7259 38.6247L43.7817 38.555C43.8682 38.4433 43.9547 38.3317 44.0357 38.2173L44.0998 38.1252C44.178 38.0164 44.2533 37.9048 44.3259 37.7931C44.351 37.7569 44.3733 37.7206 44.3957 37.6815C44.4626 37.5755 44.5324 37.4666 44.5938 37.355L44.6217 37.3076C44.7082 37.1569 44.7891 37.0034 44.8673 36.8471C44.9008 36.7857 44.9287 36.7215 44.9594 36.6574C45.0096 36.5513 45.0598 36.4425 45.1045 36.3364C45.1491 36.2304 45.1798 36.1551 45.2161 36.0574C45.2524 35.9597 45.2803 35.8983 45.311 35.8146C45.3417 35.7309 45.3891 35.5913 45.4254 35.4769C45.4421 35.4183 45.4617 35.3597 45.4784 35.3011C45.5203 35.1672 45.5565 35.0221 45.59 34.8965C45.59 34.863 45.6068 34.8323 45.6124 34.7988C45.6431 34.676 45.6682 34.5505 45.6905 34.4277C45.6905 34.4053 45.6905 34.3858 45.6905 34.3663V34.3467C45.684 32.9618 45.2221 31.6174 44.3761 30.5208C44.365 30.5085 44.3548 30.4954 44.3454 30.4818C44.2589 30.3701 44.1696 30.2557 44.0664 30.1469L44.044 30.1218C43.9436 30.0074 43.8431 29.8957 43.7343 29.7869C43.7115 29.7622 43.6873 29.7389 43.6617 29.7171C43.5696 29.6223 43.4747 29.5302 43.3827 29.4381C43.338 29.4018 43.2934 29.3655 43.2515 29.3265C43.165 29.2539 43.0813 29.1785 42.992 29.106C42.9027 29.0334 42.8608 29.0055 42.7966 28.9553L42.5762 28.7851L42.325 28.6148C42.2608 28.5702 42.1994 28.5255 42.1297 28.4809C41.9762 28.3832 41.8199 28.2856 41.6581 28.2018L19.8272 15.5967V19.3193L31.8993 26.2959L39.3 30.5683C41.7753 31.9971 42.7492 34.556 41.1809 36.7578C40.4754 37.5975 39.6247 38.3036 38.6693 38.8424L24.3619 47.1138C21.7611 48.6151 19.1491 48.7574 17.0003 47.5184L16.9501 47.4849C17.3968 47.8745 17.88 48.2202 18.3928 48.5174" fill="#FBB261"/>
<path d="M19.8495 11.9634L40.2851 23.7593C43.8515 25.8187 45.8942 29.0614 45.8942 32.6696C45.8925 33.2625 45.8355 33.8539 45.724 34.4361V34.3747C45.724 31.8939 44.2924 29.7032 41.6943 28.2019L19.8746 15.6051L19.8495 11.9634Z" fill="#F79421"/>
<path d="M25.732 42.604C24.3172 43.4217 23.0168 43.5835 22.001 43.1956C21.8641 43.1409 21.7308 43.0775 21.602 43.0059V43.0059L21.5796 42.9919C21.4592 42.921 21.3444 42.8407 21.2364 42.7519L21.2057 42.7296C21.0919 42.6326 20.9847 42.5282 20.8848 42.4171C20.2513 41.7027 19.8802 40.6171 19.8774 39.2163V37.7651L16.6431 39.6321C16.6431 44.4654 20.2708 45.7518 23.5107 43.8877L25.732 42.604Z" fill="#FBB261"/>
<path d="M6.35976 18.323C6.35976 16.6877 6.87045 15.4822 7.71321 14.7957C7.82731 14.7004 7.94965 14.6154 8.07878 14.5417H8.10389C8.22473 14.4727 8.35069 14.413 8.48063 14.3631L8.51689 14.3492C8.65707 14.2982 8.80069 14.2571 8.94666 14.2264C9.8843 14.0339 11.0089 14.2571 12.2228 14.9548L13.4646 15.6719V11.9158C9.27874 9.49633 6.34302 12.0079 6.34302 15.7361L6.35976 18.323Z" fill="#0094BB"/>
<path d="M37.0814 13.688C38.4963 14.5028 39.286 15.5493 39.459 16.6209C39.4823 16.7668 39.4944 16.9141 39.4953 17.0618V17.0758C39.4953 17.0758 39.4953 17.0953 39.4953 17.1037C39.4952 17.2439 39.484 17.3839 39.4618 17.5223C39.4602 17.5343 39.4602 17.5465 39.4618 17.5586C39.4348 17.7058 39.3984 17.8512 39.353 17.9939C39.0516 18.898 38.2953 19.7631 37.0842 20.4636L35.8396 21.1808L39.0739 23.0477C43.2598 20.6366 42.5538 16.8358 39.3279 14.9717L37.0814 13.688Z" fill="#1CB079"/>
<path d="M45.8663 17.0841C45.8663 13.4814 43.8235 10.2359 40.2599 8.17647L28.905 1.62134C28.331 1.29057 27.7331 1.00326 27.1162 0.761834C27.1179 0.757341 27.1179 0.752376 27.1162 0.747884C26.4694 0.490781 25.8007 0.292767 25.1181 0.156273H25.0735C24.9256 0.125576 24.7749 0.100461 24.6242 0.0781366H24.5377L24.1191 0.0279077H24.0047C23.8707 0.0279077 23.7396 0.00558121 23.6056 0H23.4745C23.3461 0 23.2205 0 23.0922 0H23.0363C22.8633 0 22.6903 0.00558053 22.5173 0.0167429L22.3052 0.0334859C22.188 0.0334859 22.0708 0.053023 21.9536 0.066976L21.6606 0.108833L21.4038 0.147902L21.0522 0.22046L20.8736 0.259528C20.7369 0.293016 20.5946 0.3265 20.4662 0.365568L20.3713 0.393476C20.2513 0.429754 20.1285 0.471611 20.0085 0.51347L19.9555 0.541378C18.7594 1.23916 17.8259 2.31091 17.2989 3.59151C17.2945 3.60773 17.2889 3.6236 17.2821 3.63895C17.2263 3.77011 17.1761 3.90126 17.1258 4.04079V4.07149C17.0756 4.21381 17.031 4.35055 16.9891 4.50683C16.9791 4.53894 16.9707 4.57154 16.964 4.6045C16.9305 4.73287 16.897 4.85844 16.8663 4.99239C16.8663 5.0482 16.8468 5.10402 16.8356 5.16262C16.8133 5.27145 16.791 5.38028 16.7742 5.49469C16.7575 5.60911 16.7519 5.65934 16.7407 5.74027C16.7296 5.8212 16.7128 5.92166 16.7045 6.01933C16.6961 6.117 16.7045 6.22304 16.6821 6.3235C16.6598 6.42397 16.6682 6.47979 16.6626 6.55792C16.6626 6.7421 16.6626 6.92628 16.6626 7.11604V32.3236L19.883 30.4566V7.92532C19.883 5.06774 21.6131 2.94688 24.3061 3.20082C25.3895 3.39411 26.4292 3.78072 27.3757 4.34218L41.6804 12.6163C44.2784 14.1177 45.71 16.3111 45.71 18.7919C45.71 18.8115 45.71 18.831 45.71 18.8505C45.8232 18.2685 45.8802 17.677 45.8802 17.0841" fill="#1CB079"/>
</svg>
