<svg width="20" height="19" viewBox="0 0 20 19" fill="none" xmlns="http://www.w3.org/2000/svg">
<path d="M18.7802 16.2974L14.708 12.2781C15.5493 11.0264 16.0418 9.52781 16.0418 7.91675C16.0418 3.55145 12.4437 0 8.02092 0C3.59818 0 0 3.55145 0 7.91675C0 12.282 3.59818 15.8335 8.02092 15.8335C9.65317 15.8335 11.1715 15.3474 12.4396 14.5169L16.5119 18.5363C17.1375 19.1546 18.1545 19.1546 18.7802 18.5363C19.4066 17.918 19.4066 16.9157 18.7802 16.2974ZM2.40628 7.91675C2.40628 4.86088 4.92484 2.37502 8.02092 2.37502C11.117 2.37502 13.6356 4.86088 13.6356 7.91675C13.6356 10.9726 11.117 13.4585 8.02092 13.4585C4.92484 13.4585 2.40628 10.9726 2.40628 7.91675Z" fill="white"/>
</svg>
