<svg width="192" height="190" viewBox="0 0 192 190" fill="none" xmlns="http://www.w3.org/2000/svg">
<mask id="mask0_298_2357" style="mask-type:alpha" maskUnits="userSpaceOnUse" x="0" y="0" width="196" height="190">
<rect width="196" height="190" fill="#184377"/>
</mask>
<g mask="url(#mask0_298_2357)">
<path d="M115.879 160.599L142.08 272.829C146.937 293.635 127.653 311.657 107.174 305.578L-3.02438 272.131C-23.2929 266.003 -29.3279 240.153 -13.9168 225.474L70.0806 146.691C85.4917 132.012 111.022 139.792 115.879 160.599Z" fill="#FFD96B"/>
<path d="M144.438 66.0554L228.225 -12.6786C243.896 -27.1965 269.216 -19.3669 274.024 1.22958L300.225 113.46C305.082 134.266 285.797 152.287 265.319 146.209L155.331 112.713C134.852 106.634 128.817 80.7834 144.438 66.0554Z" fill="#0695BB"/>
<path d="M152.641 117.33L262.839 150.777C283.108 156.905 289.143 182.755 273.732 197.434L189.734 276.217C174.274 290.686 148.793 283.116 143.936 262.309L117.735 150.079C112.877 129.272 132.372 111.202 152.641 117.33Z" fill="#1EB179"/>
<path d="M-16.241 117.308L41.0666 178.616L57.5954 196.254L79.1199 219.154L86.533 227.175C96.2652 237.535 106.676 241.31 115.714 239.2C124.751 237.09 132.414 229.096 136.553 215.497L165.364 120.565C173.48 93.6268 157.778 76.6816 130.246 83.1092L119.528 85.6115L130.789 48.4093C132.28 43.407 133.401 38.713 134.052 33.9069C158.635 31.9354 180.655 39.8705 196.259 56.3953C214.848 76.2126 220.421 104.831 211.422 134.634L182.611 229.566C173.612 259.37 153.185 280.096 126.704 286.278C104.636 291.43 81.7969 285.681 62.5081 270.459C58.6826 267.363 55.0182 264.008 51.4658 260.183L24.9455 232.023L-70.4644 129.966M62.5081 270.459C51.9529 292.648 34.0198 307.916 11.9522 313.067C-14.5291 319.25 -42.0209 309.711 -63.2862 286.973L-131.153 214.611C-152.418 191.872 -160.093 163.745 -152.2 137.745C-145.526 116.02 -129.296 99.1547 -106.381 90.0374C-101.904 88.3275 -97.1686 86.7787 -92.1246 85.6011L-54.2943 76.7694L81.4746 45.0733L62.5081 270.459ZM-106.591 90.0865C-120.619 69.8694 -124.916 46.7157 -118.291 24.7798C-110.399 -1.21971 -88.4799 -20.2991 -58.0055 -27.4135L38.672 -49.9835C68.9363 -57.0488 97.0374 -49.647 115.836 -29.8788C131.44 -13.3539 137.839 9.30911 134.262 33.8579C133.611 38.6639 132.54 43.5681 130.999 48.3603L119.738 85.5624L79.3791 219.315L-106.591 90.0865ZM41.0666 178.616L65.3044 98.2703L72.2654 74.9261L81.4255 44.8631L84.5208 34.3891C92.6374 7.45083 76.9354 -9.49437 49.4034 -3.06684L-47.2741 19.5031C-74.8061 25.9306 -81.382 48.0768 -62.1767 68.6366L-54.7636 76.6574L41.0666 178.616ZM134.052 33.9069C158.635 31.9354 180.655 39.8705 196.259 56.3953C214.848 76.2126 220.421 104.831 211.422 134.634L182.611 229.566C173.612 259.37 153.185 280.096 126.704 286.278C104.636 291.43 81.7969 285.681 62.5081 270.459C58.6826 267.363 55.0182 264.008 51.4658 260.183L24.9455 232.023L-70.4644 129.966L134.052 33.9069ZM-16.241 117.308L41.0666 178.616L57.5954 196.254L79.1199 219.154L86.533 227.175C96.2652 237.535 106.676 241.31 115.714 239.2C124.751 237.09 132.414 229.096 136.553 215.497L165.364 120.565C173.48 93.6268 157.778 76.6816 130.246 83.1092L119.528 85.6115L-16.241 117.308ZM119.528 85.6115L79.169 219.364L57.6445 196.465L41.1157 178.826L65.3534 98.4805L72.3145 75.1363L81.4746 45.0733L84.5699 34.5993C92.6865 7.66101 76.9845 -9.2842 49.4524 -2.85667L-47.225 19.7133C-74.7571 26.1408 -81.333 48.2869 -62.1277 68.8467L-54.7146 76.8675L-92.5449 85.6992C-97.5889 86.8768 -102.325 88.4256 -106.801 90.1356C-120.829 69.9185 -125.126 46.7648 -118.502 24.8288C-110.609 -1.17064 -88.69 -20.25 -58.2156 -27.3644L38.4619 -49.9344C68.7261 -56.9998 96.8273 -49.5979 115.626 -29.8297C131.23 -13.3049 137.629 9.35818 134.052 33.9069C133.401 38.713 132.33 43.6172 130.789 48.4093L119.528 85.6115Z" stroke="#184377" stroke-width="1.20401" stroke-miterlimit="10"/>
</g>
</svg>
