<svg width="77" height="171" viewBox="0 0 77 171" fill="none" xmlns="http://www.w3.org/2000/svg">
<mask id="mask0_285:2036" style="mask-type:alpha" maskUnits="userSpaceOnUse" x="0" y="0" width="77" height="171">
<rect width="77" height="171" fill="#C4C4C4"/>
</mask>
<g mask="url(#mask0_285:2036)">
<path d="M62.7697 45.6191L14.345 17.6651C13.9493 17.4336 13.5402 17.2259 13.1198 17.0431V16.9771C-1.01738 8.80581 -10.9229 17.175 -10.9229 29.7666V38.5034C-10.9229 32.9804 -9.20751 28.9089 -6.36122 26.5904C-5.97495 26.277 -5.56537 25.9934 -5.13601 25.7422L-5.05122 25.6951C-4.64112 25.4657 -4.21601 25.2641 -3.77884 25.0919H-3.65631C-3.1831 24.9164 -2.69811 24.7747 -2.20491 24.6678C0.848722 24.0457 4.50553 24.7432 8.4451 26.9109L8.84098 27.1653L29.7829 39.1254L54.7774 53.5548C65.6725 59.8505 68.0664 72.6871 53.9198 80.8301L57.9536 83.1675C59.8917 84.2804 61.7412 85.5408 63.4859 86.9374C65.3311 85.4762 67.0407 83.8517 68.5942 82.0836L68.6978 81.9705C69.0277 81.5841 69.3576 81.1883 69.6403 80.7924C69.6979 80.7098 69.7609 80.6311 69.8288 80.5568C70.121 80.1798 70.4038 79.8028 70.6865 79.4164L70.9033 79.1054C71.1672 78.7378 71.4216 78.3608 71.6667 77.9838L71.9023 77.6068C72.1285 77.2487 72.3547 76.8811 72.5715 76.5042L72.6657 76.3439C72.9579 75.835 73.2312 75.3166 73.4951 74.7888C73.5988 74.5721 73.7024 74.3647 73.7967 74.1479C73.8909 73.9312 74.1359 73.4222 74.2962 73.0641C74.4564 72.706 74.5507 72.4421 74.6732 72.1216C74.7957 71.8012 74.89 71.5844 74.9842 71.3017C75.0785 71.0189 75.2481 70.5477 75.3706 70.1613C75.4366 69.9633 75.4931 69.7654 75.5591 69.5675C75.6911 69.1151 75.823 68.625 75.9361 68.2009C75.9361 68.0878 75.9832 67.9841 76.0115 67.871C76.1152 67.4563 76.2 67.0322 76.2754 66.6175C76.2754 66.5421 76.2754 66.4762 76.2754 66.4102C76.2754 58.0316 71.4405 50.6331 62.666 45.5625" fill="#008566"/>
<path d="M-61.4218 33.4705C-71.9587 39.5589 -78 51.0194 -78 64.921V109.218C-77.9953 111.454 -77.8252 113.688 -77.4911 115.9C-77.1529 118.226 -76.604 120.516 -75.8512 122.742C-75.8512 122.789 -75.8512 122.846 -75.8512 122.893C-75.6815 123.374 -75.5025 123.835 -75.3234 124.326L-75.2103 124.608C-75.0312 125.051 -74.8427 125.494 -74.6542 125.918C-74.5977 126.041 -74.5411 126.154 -74.494 126.267C-74.2961 126.682 -74.1076 127.087 -73.9002 127.492L-73.6929 127.879C-73.4949 128.256 -73.2876 128.642 -73.0803 129.01C-73.0424 129.061 -73.0078 129.114 -72.9766 129.17C-72.6845 129.679 -72.3734 130.178 -72.0341 130.668L-71.6288 131.262C-71.4026 131.583 -71.1764 131.913 -70.9314 132.205C-70.6864 132.497 -70.5262 132.732 -70.3188 132.987L-69.7722 133.666C-69.5083 133.977 -69.2444 134.278 -68.9711 134.608L-68.547 135.06C-68.2265 135.409 -67.8966 135.739 -67.5479 136.069L-67.3029 136.304C-66.9919 136.597 -66.6714 136.879 -66.3604 137.162C-66.3041 137.202 -66.2441 137.237 -66.1813 137.266C-62.1208 139.59 -57.4059 140.508 -52.7699 139.876H-52.6096C-52.1289 139.81 -51.6671 139.745 -51.1771 139.65H-51.064C-50.5645 139.556 -50.0649 139.443 -49.556 139.32L-49.2356 139.226C-48.802 139.104 -48.3685 138.991 -47.9349 138.849L-47.3788 138.661L-46.3044 138.284L-45.5316 137.963L-44.6645 137.605L-43.722 137.153C-43.4864 137.04 -43.2413 136.936 -43.0057 136.813C-42.4591 136.531 -41.9124 136.229 -41.3658 135.871L32.3644 93.2991L21.4693 87.041L-19.3118 110.603L-44.2969 125.023C-52.6567 129.858 -61.7894 128.378 -65.5781 120.075C-66.8552 116.589 -67.4937 112.902 -67.4631 109.189V53.2626C-67.4631 43.1215 -63.4764 35.2329 -56.2193 31.0483L-56.0402 30.954C-57.9324 31.6088 -59.7592 32.4386 -61.4972 33.4328" fill="#0094BB"/>
<path d="M43.0336 99.4441L-25.9653 139.264C-38.0008 146.219 -50.9411 146.709 -61.4874 140.63C-63.2159 139.626 -64.8444 138.458 -66.3506 137.143L-66.1809 137.247C-58.9239 141.441 -50.0928 140.96 -41.3089 135.89L32.3836 93.3368L43.0336 99.4441Z" fill="#007196"/>
<path d="M4.27842 162.119L52.6936 134.165C53.1177 133.92 53.4853 133.665 53.8435 133.411H53.9C68.0372 125.268 65.7564 112.488 54.8425 106.192L47.3027 101.828C52.081 104.59 54.7482 108.115 55.342 111.734C55.4202 112.23 55.4612 112.731 55.4645 113.233V113.289C55.4691 113.317 55.4691 113.346 55.4645 113.374C55.4643 113.847 55.4265 114.32 55.3514 114.788C55.3553 114.828 55.3553 114.869 55.3514 114.91C55.269 115.409 55.1461 115.901 54.9838 116.38C54.0414 119.33 51.5721 122.148 47.7174 124.476L47.3027 124.693L26.3796 136.776L1.33789 151.28C-9.5666 157.576 -21.8754 153.231 -21.8565 136.908L-25.8998 139.236C-27.836 140.351 -29.8521 141.321 -31.9316 142.138C-31.5935 144.464 -31.0446 146.754 -30.2917 148.981C-30.2864 149.031 -30.2864 149.081 -30.2917 149.132C-30.1221 149.612 -29.943 150.074 -29.7545 150.564C-29.7545 150.658 -29.6791 150.753 -29.6414 150.847C-29.4624 151.29 -29.2833 151.723 -29.0854 152.157C-29.0854 152.279 -28.9817 152.393 -28.9251 152.506C-28.7366 152.92 -28.5481 153.326 -28.3408 153.731L-28.1335 154.117C-27.9261 154.494 -27.7282 154.881 -27.5114 155.248L-27.4172 155.408C-27.125 155.917 -26.8046 156.417 -26.4747 156.907L-26.06 157.501C-25.8338 157.821 -25.6076 158.151 -25.372 158.443C-25.1364 158.735 -24.9667 158.971 -24.7594 159.226C-24.552 159.48 -24.3918 159.687 -24.2034 159.904C-24.0149 160.121 -23.685 160.517 -23.4116 160.847L-22.9875 161.299C-22.6576 161.638 -22.3278 161.978 -21.9885 162.307C-21.9115 162.391 -21.8297 162.469 -21.7434 162.543C-21.4324 162.835 -21.112 163.118 -20.801 163.401L-20.6219 163.514C-13.3648 167.698 -4.54317 167.218 4.24075 162.147" fill="#F79421"/>
<path d="M-15.8813 166.859C-5.33495 172.938 7.60531 172.448 19.6502 165.493L57.9997 143.363C59.9327 142.247 61.7789 140.987 63.5226 139.594C65.3677 138.132 67.0774 136.508 68.6309 134.74L68.7346 134.627C69.0739 134.24 69.3943 133.844 69.6771 133.449L69.8656 133.213C70.1577 132.836 70.4499 132.459 70.7232 132.073L70.9399 131.762C71.2038 131.394 71.4583 131.017 71.7033 130.64C71.7882 130.517 71.8636 130.395 71.939 130.263C72.1652 129.905 72.4008 129.537 72.6082 129.16L72.7024 129C72.9945 128.491 73.2679 127.973 73.5318 127.445C73.6449 127.238 73.7391 127.021 73.8428 126.804C74.0124 126.446 74.1821 126.078 74.3329 125.72C74.4837 125.362 74.5873 125.108 74.7099 124.778C74.8324 124.448 74.9267 124.241 75.0303 123.958C75.134 123.675 75.2942 123.204 75.4167 122.817C75.4733 122.619 75.5392 122.422 75.5958 122.224C75.7372 121.771 75.8597 121.281 75.9728 120.857C75.9728 120.744 76.0294 120.64 76.0482 120.527C76.1519 120.112 76.2367 119.688 76.3121 119.274C76.3121 119.198 76.3121 119.132 76.3121 119.066V119C76.29 114.323 74.7301 109.782 71.873 106.079C71.8355 106.037 71.8009 105.993 71.7693 105.947C71.4772 105.57 71.1756 105.184 70.8269 104.816L70.7514 104.731C70.4121 104.345 70.0729 103.968 69.7053 103.6C69.6283 103.517 69.5465 103.438 69.4602 103.365C69.1492 103.044 68.8288 102.733 68.5178 102.422C68.367 102.3 68.2162 102.177 68.0748 102.045C67.7827 101.8 67.4999 101.546 67.1983 101.301C66.8967 101.056 66.7553 100.961 66.5386 100.792L65.794 100.217L64.9458 99.6418C64.729 99.491 64.5217 99.3402 64.286 99.1894C63.7677 98.8596 63.2399 98.5297 62.6932 98.2469L-11.0369 55.6751V68.2478L29.7347 91.8098L54.7293 106.239C63.0891 111.065 66.3784 119.707 61.0816 127.143C58.6988 129.979 55.8257 132.364 52.5993 134.184L4.27836 162.119C-4.50555 167.189 -13.3272 167.67 -20.5843 163.485L-20.7539 163.372C-19.2451 164.688 -17.6134 165.856 -15.8813 166.859Z" fill="#FBB261"/>
<path d="M-10.9609 43.4041L58.0568 83.2427C70.1017 90.1982 77.0007 101.15 77.0007 113.336C76.9951 115.338 76.8027 117.336 76.4258 119.302V119.095C76.4258 110.716 71.5908 103.318 62.8164 98.247L-10.8761 55.7035L-10.9609 43.4041Z" fill="#F79421"/>
<path d="M8.90648 146.889C4.12811 149.65 -0.263844 150.197 -3.69447 148.887C-4.15684 148.702 -4.60699 148.488 -5.04221 148.246L-5.11762 148.199C-5.52448 147.959 -5.91204 147.688 -6.27686 147.388L-6.38052 147.313C-6.76471 146.985 -7.12681 146.633 -7.46439 146.257C-9.60382 143.844 -10.8573 140.178 -10.8667 135.447V130.546L-21.79 136.851C-21.79 153.175 -9.53781 157.52 1.40438 151.224L8.90648 146.889Z" fill="#FBB261"/>
<path d="M47.236 49.2285C52.0144 51.9805 54.6816 55.5148 55.2659 59.1339C55.3445 59.6265 55.3855 60.1243 55.3885 60.623V60.6701C55.3885 60.6701 55.3885 60.7361 55.3885 60.7644C55.3883 61.2379 55.3505 61.7106 55.2754 62.1781C55.2701 62.2188 55.2701 62.26 55.2754 62.3006C55.184 62.798 55.0612 63.2891 54.9078 63.7709C53.8899 66.8245 51.3358 69.7462 47.2455 72.1119L43.042 74.534L53.9653 80.8392C68.1025 72.6962 65.7181 59.8596 54.823 53.5639L47.236 49.2285Z" fill="#1CB079"/>
<path d="M76.9059 60.6986C76.9059 48.5312 70.007 37.5702 57.9715 30.6147L19.622 8.47581C17.6835 7.35869 15.6641 6.38836 13.5807 5.57297C13.5865 5.55779 13.5865 5.54103 13.5807 5.52585C11.3962 4.65753 9.13766 3.98877 6.83258 3.52779H6.68175C6.18223 3.42411 5.67331 3.33929 5.16437 3.26389H4.8722L3.45848 3.09425H3.07203C2.61964 3.09425 2.17668 3.01885 1.72429 3H1.28136C0.847815 3 0.423704 3 -0.0098362 3H-0.198345C-0.782682 3 -1.36701 3.01885 -1.95134 3.05655L-2.66764 3.11309C-3.06348 3.11309 -3.45933 3.17908 -3.85517 3.2262L-4.84476 3.36757L-5.71183 3.49951L-6.89936 3.74457L-7.50256 3.87651C-7.96438 3.98961 -8.44506 4.1027 -8.8786 4.23465L-9.19902 4.3289C-9.60428 4.45142 -10.019 4.59279 -10.4242 4.73416L-10.6033 4.82841C-14.6431 7.18505 -17.7958 10.8047 -19.5757 15.1297C-19.5904 15.1845 -19.6093 15.2381 -19.6323 15.2899C-19.8208 15.7329 -19.9904 16.1759 -20.1601 16.6471V16.7508C-20.3297 17.2315 -20.4805 17.6933 -20.6219 18.2211C-20.6557 18.3295 -20.684 18.4396 -20.7067 18.5509C-20.8198 18.9845 -20.9329 19.4086 -21.0366 19.861C-21.0366 20.0495 -21.1026 20.238 -21.1403 20.4359C-21.2157 20.8035 -21.291 21.171 -21.3476 21.5574C-21.4041 21.9438 -21.423 22.1135 -21.4607 22.3868C-21.4984 22.6601 -21.5549 22.9994 -21.5832 23.3293C-21.6115 23.6592 -21.5832 24.0173 -21.6586 24.3566C-21.734 24.6959 -21.7058 24.8844 -21.7246 25.1483C-21.7246 25.7703 -21.7246 26.3924 -21.7246 27.0333V112.167L-10.8484 105.862V29.7664C-10.8484 20.1154 -5.005 12.9526 4.08993 13.8102C7.74889 14.463 11.2606 15.7688 14.4572 17.665L62.7687 45.6095C71.5432 50.6801 76.3781 58.088 76.3781 66.4666C76.3781 66.5326 76.3781 66.5985 76.3781 66.6645C76.7606 64.6989 76.9531 62.7011 76.953 60.6986" fill="#1CB079"/>
</g>
</svg>
