<svg width="16" height="15" viewBox="0 0 16 15" fill="none" xmlns="http://www.w3.org/2000/svg">
<path d="M5.01354 14.0305C11.0484 14.0305 14.3598 8.60602 14.3598 3.9182C14.3598 3.75077 14.3598 3.61684 14.3598 3.44941C15.0097 2.98063 15.5358 2.34443 16 1.64125C15.412 1.94261 14.7621 2.11003 14.1122 2.21049C14.793 1.77519 15.3191 1.07202 15.5667 0.234905C14.9168 0.636719 14.205 0.938079 13.4932 1.1055C12.8743 0.402327 12.0077 0.000513913 11.1103 0.000513913C9.28433 -0.0329705 7.79884 1.57428 7.79884 3.51638C7.79884 3.78426 7.82979 4.05213 7.89168 4.32001C5.23017 4.18607 2.7853 2.84669 1.11412 0.603234C0.247582 2.24397 0.680851 4.32001 2.1354 5.35803C1.60928 5.35803 1.11412 5.1906 0.649903 4.92273V4.95621C0.649903 6.63044 1.76402 8.10375 3.28046 8.4386C2.7853 8.57253 2.29014 8.60602 1.79497 8.50557C2.22824 9.9454 3.46615 10.9499 4.8588 10.9834C3.68279 11.9545 2.25919 12.5237 0.773694 12.4902C0.526112 12.4902 0.247582 12.4567 0 12.4232C1.48549 13.4613 3.24952 14.0305 5.01354 14.0305Z" fill="#184377"/>
</svg>
