<svg width="50" height="50" viewBox="0 0 50 50" fill="none" xmlns="http://www.w3.org/2000/svg">
<rect width="50" height="50" fill="#002249"/>
<path d="M22.0135 32C28.0484 32 31.3598 26.5873 31.3598 21.9097C31.3598 21.7426 31.3598 21.609 31.3598 21.4419C32.0097 20.9742 32.5358 20.3393 33 19.6377C32.412 19.9384 31.7621 20.1054 31.1122 20.2057C31.793 19.7713 32.3191 19.0697 32.5667 18.2344C31.9168 18.6353 31.205 18.936 30.4932 19.1031C29.8743 18.4015 29.0077 18.0005 28.1103 18.0005C26.2843 17.9671 24.7988 19.5709 24.7988 21.5087C24.7988 21.776 24.8298 22.0433 24.8917 22.3106C22.2302 22.177 19.7853 20.8405 18.1141 18.6019C17.2476 20.2391 17.6809 22.3106 19.1354 23.3464C18.6093 23.3464 18.1141 23.1793 17.6499 22.912V22.9454C17.6499 24.616 18.764 26.0861 20.2805 26.4203C19.7853 26.5539 19.2901 26.5873 18.795 26.4871C19.2282 27.9238 20.4662 28.9261 21.8588 28.9595C20.6828 29.9285 19.2592 30.4965 17.7737 30.4631C17.5261 30.4631 17.2476 30.4297 17 30.3962C18.4855 31.432 20.2495 32 22.0135 32Z" fill="white"/>
</svg>
