<svg width="207" height="421" viewBox="0 0 207 421" fill="none" xmlns="http://www.w3.org/2000/svg">
<mask id="mask0_121:2251" style="mask-type:alpha" maskUnits="userSpaceOnUse" x="0" y="0" width="207" height="421">
<rect width="207" height="421" fill="#184377"/>
</mask>
<g mask="url(#mask0_121:2251)">
<path d="M41.8009 458.745L106.391 630.568C118.366 662.423 101.003 685.752 75.0036 672.988L-65.1247 603.209C-90.891 590.41 -105.769 550.833 -91.977 531.777L-16.439 429.734C-2.64735 410.677 29.8263 426.891 41.8009 458.745Z" fill="#FFD96B"/>
<path d="M127.711 310.563L203.02 208.552C217.167 189.782 249.409 206.031 261.263 237.565L325.857 409.392C337.832 441.248 320.469 464.578 294.467 451.814L154.565 381.997C128.564 369.233 113.685 329.655 127.711 310.563Z" fill="#0695BB"/>
<path d="M117.56 377.905L257.7 447.688C283.469 460.487 298.347 500.066 284.555 519.123L209.01 621.171C195.096 639.906 162.741 624.014 150.765 592.157L86.1696 420.327C74.194 388.471 91.7915 365.106 117.56 377.905Z" fill="#1EB179"/>
<path d="M-102.556 384.649L-14.1496 487.972L11.3352 517.706L44.501 556.321L55.9647 569.823C70.9626 587.292 84.756 594.923 95.0705 593.398C105.385 591.872 112.221 581.19 113.054 561.379L118.775 423.063C120.327 383.804 96.0583 355.271 64.635 359.919L52.4015 361.728L54.6075 307.52C54.8768 300.227 54.7906 293.331 54.1003 286.18C83.3181 287.73 112.477 303.796 136.497 331.674C165.152 365.084 180.726 409.41 178.986 452.842L173.265 591.157C171.525 634.59 153.126 662.18 122.902 666.651C97.7152 670.376 68.2352 657.466 40.1463 630.881C34.5517 625.491 29.0726 619.739 23.585 613.297L-17.2618 565.802L-164.443 393.803M40.1463 630.881C34.1734 662.505 17.1181 682.297 -8.06856 686.023C-38.2925 690.493 -74.5837 670.993 -107.385 632.669L-212.006 510.675C-244.808 472.352 -262.781 428.381 -261.212 390.501C-259.805 358.861 -245.307 336.338 -220.314 326.77C-215.409 325.008 -210.141 323.538 -204.384 322.686L-161.207 316.3L-6.24915 293.38L40.1463 630.881ZM-220.554 326.805C-243.799 293.631 -256.142 257.808 -254.86 225.842C-253.291 187.961 -232.573 163.136 -197.792 157.992L-87.4504 141.671C-52.9087 136.562 -16.5363 152.942 12.3584 186.316C36.3781 214.195 51.1204 249.663 54.3402 286.145C55.0304 293.296 55.2409 300.518 54.8474 307.484L52.6414 361.693L44.8651 556.612L-220.554 326.805ZM-14.1496 487.972L-9.48561 370.882L-8.22897 336.847L-6.37339 293.053L-5.84345 277.777C-4.29165 238.517 -28.5599 209.984 -59.9832 214.632L-170.324 230.953C-201.748 235.601 -202.906 267.895 -173.274 302.542L-161.811 316.044L-14.1496 487.972ZM54.1003 286.18C83.3181 287.73 112.477 303.796 136.497 331.674C165.152 365.084 180.726 409.41 178.986 452.842L173.265 591.157C171.525 634.59 153.126 662.18 122.902 666.651C97.7152 670.376 68.2352 657.466 40.1463 630.881C34.5517 625.491 29.0726 619.739 23.585 613.297L-17.2618 565.802L-164.443 393.803L54.1003 286.18ZM-102.556 384.649L-14.1496 487.972L11.3352 517.706L44.501 556.321L55.9647 569.823C70.9626 587.292 84.756 594.923 95.0705 593.398C105.385 591.872 112.221 581.19 113.054 561.379L118.775 423.063C120.327 383.804 96.0583 355.271 64.635 359.919L52.4015 361.728L-102.556 384.649ZM52.4015 361.728L44.6253 556.648L11.4594 518.033L-14.0254 488.299L-9.36137 371.209L-8.10472 337.174L-6.24915 293.38L-5.7192 278.104C-4.1674 238.844 -28.4356 210.311 -59.8589 214.959L-170.2 231.28C-201.624 235.928 -202.782 268.222 -173.15 302.869L-161.687 316.371L-204.864 322.757C-210.621 323.609 -215.889 325.079 -220.794 326.841C-244.038 293.666 -256.382 257.844 -255.099 225.877C-253.53 187.996 -232.813 163.172 -198.032 158.027L-87.6903 141.706C-53.1486 136.597 -16.7762 152.977 12.1186 186.352C36.1383 214.231 50.8806 249.698 54.1003 286.18C54.7906 293.331 55.001 300.554 54.6075 307.52L52.4015 361.728Z" stroke="#184377" stroke-width="1.20401" stroke-miterlimit="10"/>
</g>
</svg>
